<svg width="100" height="100" viewBox="0 0 100 100" fill="none" xmlns="http://www.w3.org/2000/svg">
<path d="M56.5496 0.826416L28.309 4.34843C17.0459 9.62063 8.0914 19.3097 3.45976 31.3068L3.41171 68.5703C8.03007 80.626 17.0102 90.3642 28.3141 95.6538L56.5488 99.1736C78.824 94.8999 95.7039 74.5109 95.7039 50.0001C95.7039 25.4897 78.8246 5.10087 56.5496 0.826416Z" fill="#FC9A8D" fill-opacity="0.2"/>
<path d="M43.7267 87.5785C23.865 87.5785 7.70618 70.6944 7.70618 49.9411C7.70618 29.1876 23.865 12.3035 43.7267 12.3035C63.5886 12.3035 79.7472 29.1876 79.7472 49.9411C79.7472 70.6944 63.5884 87.5785 43.7267 87.5785ZM43.7267 15.4387C25.5195 15.4387 10.707 30.9164 10.707 49.9409C10.707 68.9652 25.5195 84.4428 43.7267 84.4428C61.9339 84.4428 76.7466 68.9652 76.7466 49.9409C76.7466 30.9164 61.9339 15.4387 43.7267 15.4387Z" fill="#E3E4EA"/>
<path d="M43.7267 67.3274C33.8201 67.3274 25.7894 75.7188 25.7894 86.0699C25.7894 89.5731 26.7127 92.8494 28.3138 95.6541C29.8547 96.3751 31.4394 97.0118 33.0615 97.5625L33.0613 97.562L57.1455 98.5055C59.956 95.1968 61.6638 90.8421 61.6638 86.0699C61.664 75.7188 53.6332 67.3274 43.7267 67.3274Z" fill="#92E6A0"/>
<path d="M60.6904 92.1669C55.3816 95.0822 52.9773 90.9823 52.9773 90.9823L49.4586 88.9008C49.4586 88.9008 48.4705 72.4161 45.7974 71.1777C44.0545 70.3704 44.0369 68.5233 44.2357 67.3351C44.0666 67.3302 43.897 67.3271 43.7267 67.3271C33.8201 67.3271 25.7894 75.7185 25.7894 86.0696C25.7894 89.5729 26.7127 92.8492 28.3138 95.6539C29.8547 96.3749 31.4394 97.0116 33.0615 97.5622L33.0613 97.5618L57.1455 98.5053C58.6988 96.6771 59.9128 94.5281 60.6904 92.1669Z" fill="#92E6A0"/>
<path d="M56.5498 0.826442C53.7291 0.285222 50.8224 0.00012207 47.8519 0.00012207L38.3183 0.997665C34.8299 1.73521 31.4773 2.8652 28.3088 4.34845C26.7093 7.15251 25.7894 10.429 25.7894 13.9302C25.7894 18.7022 27.4972 23.0569 30.3078 26.3658C30.3078 26.3658 36.2031 31.8964 43.7267 31.8964C51.2504 31.8964 57.1457 26.3658 57.1457 26.3658C59.9562 23.0571 61.664 18.7024 61.664 13.9302C61.664 8.82964 59.7133 4.2058 56.5498 0.826442Z" fill="#FF5E5E"/>
<path d="M57.1457 26.3658C58.8253 24.3883 60.1072 22.0352 60.8699 19.4446C55.8033 22.2854 52.6601 18.123 52.6601 18.123L43.2718 0.479492L38.3183 0.997855C34.8299 1.7354 31.4773 2.86539 28.3088 4.34864C26.7093 7.1527 25.7894 10.4292 25.7894 13.9304C25.7894 18.7024 27.4972 23.0571 30.3078 26.366C30.3082 26.3664 36.2031 31.8966 43.7267 31.8966C51.2504 31.8966 57.1457 26.3658 57.1457 26.3658Z" fill="#FF5E5E"/>
<path d="M38.278 1.00195C37.0397 2.29235 36.3202 4.05335 36.3202 5.91538V9.09964L36.3204 9.10066C36.6729 9.09209 37.0627 9.2127 37.3139 9.3876C37.4065 9.07107 37.5332 8.79719 37.7043 8.59536C37.8584 8.41393 37.9551 8.18924 37.9622 7.94904C37.9883 7.02986 38.2192 4.85743 39.7684 4.0258C40.2 3.79417 40.7274 3.97091 40.9698 4.41009C41.903 6.10068 44.0797 8.32842 48.9205 7.37904C49.2639 7.31169 49.5866 7.57843 49.5973 7.94332C49.5973 7.94516 49.5973 7.9472 49.5975 7.94904C49.6043 8.18924 49.701 8.41373 49.8553 8.59536C50.0264 8.79699 50.1532 9.07107 50.2457 9.3876C50.4969 9.2127 50.8869 9.09188 51.2393 9.10066L51.2395 9.09964V5.91538C51.2395 3.51132 50.0442 1.27256 48.0746 0.00297918C48.0002 0.00257102 47.9264 0.00012207 47.852 0.00012207C44.5731 0.00012207 41.3715 0.345425 38.278 1.00195Z" fill="#2A428C"/>
<path d="M45.8805 0.045166C43.2881 0.155165 40.7483 0.477203 38.2782 1.00148C37.0399 2.29188 36.3204 4.05289 36.3204 5.91491V9.09917L36.3206 9.10019C36.6731 9.09162 37.063 9.21223 37.3141 9.38713C37.4067 9.0706 37.5335 8.79673 37.7046 8.59489C37.8587 8.41346 37.9553 8.18877 37.9624 7.94857C37.9885 7.02939 38.2194 4.85696 39.7686 4.02534C40.2003 3.79371 40.7276 3.97044 40.97 4.40962C41.4696 5.31451 42.326 6.37307 43.7561 7.01613C43.7344 6.95021 43.7118 6.88368 43.6868 6.81572C42.3442 3.17371 44.6325 0.943118 45.8805 0.045166Z" fill="#1C2E7A"/>
<path d="M82.0627 67.5147C89.1914 67.5147 95.4307 62.4366 95.4307 62.4366C98.2719 59.1203 100 54.7418 100 49.941C100 39.5898 91.9691 31.1985 82.0627 31.1985C72.1562 31.1985 64.1254 39.5898 64.1254 49.941C64.1254 54.7418 65.8537 59.1201 68.6943 62.4362C68.6945 62.4362 74.934 67.5147 82.0627 67.5147Z" fill="#FC9A8D"/>
<path d="M87.6082 52.3091C87.6082 52.3091 85.1994 36.6629 82.9756 34.8687C81.373 33.5756 81.8318 31.9873 82.2133 31.2005C82.1631 31.2001 82.1129 31.1985 82.0627 31.1985C72.1562 31.1985 64.1254 39.5898 64.1254 49.941C64.1254 54.7418 65.8537 59.1201 68.6945 62.4362C68.6945 62.4362 74.9342 67.5147 82.0627 67.5147C89.1914 67.5147 95.4304 62.4366 95.4304 62.4366C97.1258 60.4578 98.4205 58.0989 99.1926 55.4997C92.009 58.8136 87.6082 52.3091 87.6082 52.3091Z" fill="#FC9A8D"/>
<path d="M77.2668 61.7196C78.6352 62.8298 80.3237 63.4329 82.0627 63.4329C83.8018 63.4329 85.4903 62.8298 86.8586 61.7196C87.4938 61.2041 88.1553 60.5694 88.7942 59.8229C88.4254 59.6988 88.0506 59.5847 87.6664 59.4841C87.4338 59.4233 87.2295 59.277 87.0975 59.0825C86.4891 58.1858 86.3205 56.7992 86.2875 55.7939C85.8608 56.3133 85.4129 56.7478 84.985 57.095C83.2688 58.4876 80.8545 58.4858 79.1405 57.095C78.7125 56.7476 78.2647 56.3133 77.8379 55.7939C77.8039 56.8217 77.6289 58.2476 76.987 59.1417C76.8774 59.2941 76.7086 59.4188 76.5063 59.4713C76.1067 59.5747 75.7157 59.6929 75.3309 59.8225C75.9698 60.5692 76.6315 61.2041 77.2668 61.7196Z" fill="#FCAD6D"/>
<path d="M81.8682 58.1307C80.9012 58.0896 79.9438 57.747 79.1405 57.095C78.7125 56.7478 78.2647 56.3133 77.8379 55.7939C77.8039 56.8217 77.6289 58.2476 76.987 59.1417C76.8774 59.2941 76.7086 59.4188 76.5063 59.4713C76.1067 59.5747 75.7157 59.6927 75.3309 59.8225C75.9698 60.5692 76.6315 61.2041 77.2668 61.7194C78.1522 62.4378 79.1719 62.9422 80.2524 63.21C81.2016 61.4939 81.6536 59.5833 81.8682 58.1307Z" fill="#FD995B"/>
<path d="M93.8584 62.1255C93.3133 62.079 93.0232 61.858 92.3806 61.4794C91.1521 60.7555 89.883 60.1669 88.5154 59.7327C87.8871 60.4786 87.2328 61.1063 86.6062 61.6149C85.3099 62.6667 83.7103 63.2379 82.0629 63.2379C80.4154 63.2379 78.8158 62.6667 77.5195 61.6149C76.893 61.1065 76.2387 60.4786 75.6103 59.7327C74.2465 60.1665 72.9697 60.7576 71.7449 61.4794C71.1023 61.858 70.8123 62.079 70.2672 62.1255C69.6937 62.1745 69.1711 62.2814 68.6945 62.4361C71.9789 66.27 76.7508 68.6834 82.0629 68.6834C87.3748 68.6834 92.1467 66.27 95.431 62.4361C94.9545 62.2814 94.4318 62.1745 93.8584 62.1255Z" fill="#3C58A0"/>
<path d="M5.39086 31.1985C4.73832 31.1985 4.09438 31.2358 3.45981 31.3069C2.94379 32.6436 2.48383 34.0101 2.07758 35.4013L0.210394 54.6814L0.208832 54.683C0.322113 55.9554 0.482269 57.2136 0.685004 58.4566L5.25317 67.5119C5.29907 67.5123 5.34477 67.5147 5.39067 67.5147C12.5194 67.5147 18.7586 62.4366 18.7586 62.4366C21.5998 59.1203 23.328 54.7418 23.328 49.9412C23.3282 39.5898 15.2973 31.1985 5.39086 31.1985Z" fill="#8DB2FC"/>
<path d="M11.5239 52.231L1.4485 41.8987L0.210608 54.6814L0.209045 54.6831C0.322327 55.9555 0.482483 57.2137 0.685217 58.4567L5.25338 67.5119C5.29928 67.5123 5.34498 67.5148 5.39088 67.5148C12.5196 67.5148 18.7589 62.4367 18.7589 62.4367C20.7137 60.1549 22.1415 57.3702 22.8422 54.2914C17.0079 58.2288 11.5239 52.231 11.5239 52.231Z" fill="#8DB2FC"/>
<path d="M10.4256 59.0825C9.81724 58.1858 9.64888 56.7992 9.61567 55.7939C9.18892 56.3133 8.74107 56.7478 8.31314 57.095C6.59692 58.4876 4.18267 58.4858 2.4686 57.095C2.04067 56.7478 1.59282 56.3133 1.16606 55.7939C1.13989 56.5868 1.02876 57.616 0.684814 58.4558C0.898486 59.7658 1.15923 61.059 1.46841 62.3323C2.65317 63.049 4.00571 63.4327 5.39087 63.4327C7.12993 63.4327 8.81841 62.8296 10.1868 61.7194C10.8219 61.2039 11.4836 60.5692 12.1223 59.8229C11.7536 59.6988 11.3788 59.5845 10.9946 59.4841C10.762 59.4233 10.5577 59.2772 10.4256 59.0825Z" fill="#C99382"/>
<path d="M4.36255 63.362C5.02192 61.6121 5.22446 59.7076 5.24634 58.1327C4.26235 58.1017 3.28579 57.758 2.4686 57.095C2.04067 56.7478 1.59282 56.3133 1.16606 55.7939C1.13989 56.5868 1.02876 57.616 0.684814 58.4558C0.898486 59.7657 1.15923 61.059 1.46841 62.3323C2.35767 62.8702 3.34145 63.2206 4.36255 63.362Z" fill="#895B69"/>
<path d="M4.44531 39.8962C5.05859 40.1093 5.72305 40.1093 6.33613 39.8962C7.28047 39.5681 8.76133 39.2395 9.96856 39.8071C11.3895 40.475 11.3311 42.5821 11.2527 43.7131C11.2254 44.1064 11.3148 44.5007 11.5184 44.8342C11.6385 45.0309 11.7338 45.2397 11.8094 45.4458C11.9033 45.7021 11.9701 45.9668 12.0115 46.2356C12.2297 46.1252 12.6418 45.8999 12.9084 45.9395C12.941 44.7572 13.0455 43.4825 13.0455 43.4825C14.3029 37.0477 8.54648 34.2573 3.97773 34.9077C3.23164 35.014 2.60645 35.1802 2.07891 35.3855C1.66406 36.8057 1.30781 38.2524 1.01367 39.723C2.18105 39.2767 3.55273 39.586 4.44531 39.8962Z" fill="#FFEDE8"/>
<path d="M3.97795 34.9076C3.23185 35.014 2.60666 35.1801 2.07912 35.3854C1.66428 36.8056 1.30803 38.2523 1.01389 39.7229C2.18107 39.2766 3.55256 39.5862 4.44533 39.8964C4.73771 39.998 5.04181 40.0496 5.3465 40.0543C5.31291 39.9815 5.27482 39.9098 5.22931 39.8394C3.61271 37.3492 5.89025 35.2386 6.32209 34.8721C5.53283 34.7886 4.73888 34.7993 3.97795 34.9076Z" fill="#FFEDE8"/>
<path d="M13.2849 46.0928C12.9545 45.7763 12.2961 45.9367 12.0115 46.1306C12.0738 46.5363 12.0775 46.9514 12.0236 47.3612L11.6877 49.9173C11.6877 50.1234 11.6814 50.3254 11.6701 50.524C12.4892 50.7822 12.8961 50.0138 12.9644 49.4867C12.9939 49.2597 13.0422 49.0361 13.1092 48.8177C13.3269 48.1069 14.1129 46.8857 13.2849 46.0928Z" fill="#C99382"/>
<path d="M0.210352 54.6813C0.868359 55.8589 1.7 56.7636 2.46855 57.3872C3.30215 58.0638 4.33105 58.4311 5.39082 58.4311C6.45039 58.4311 7.4793 58.0638 8.31309 57.3872C9.91035 56.0911 11.7881 53.593 11.7881 49.9173L12.124 47.3612C12.2135 46.6798 12.1457 45.9839 11.9098 45.3408C11.8342 45.1347 11.7389 44.9259 11.6187 44.7292C11.4152 44.3957 11.3258 44.0014 11.3531 43.6082C11.4314 42.4771 11.3895 40.2653 9.96856 39.5972C8.76133 39.0296 7.28066 39.3582 6.33633 39.6863C5.72305 39.8994 5.0584 39.8994 4.44512 39.6863C3.56465 39.3804 2.21797 39.0747 1.06133 39.4949C0.368164 42.8827 0 46.3961 0 50.0001C0 51.5791 0.0734375 53.1399 0.210352 54.6813Z" fill="#C99382"/>
<path d="M7.26055 57.3872C5.66328 56.0911 3.78555 53.5929 3.78555 49.9172L3.44961 47.3611C3.35996 46.6797 3.42793 45.9838 3.66387 45.3407C3.73945 45.1346 3.83477 44.9258 3.95488 44.7291C4.1584 44.3956 4.24785 44.0014 4.22051 43.6081C4.1498 42.5879 4.18066 40.6922 5.2293 39.8393C4.96406 39.8245 4.7002 39.7749 4.44531 39.6863C3.56484 39.3804 2.21816 39.0747 1.06152 39.4949C0.368164 42.8826 0 46.396 0 50.0001C0 51.5791 0.0734375 53.1399 0.210352 54.6813C0.868359 55.8588 1.7 56.7635 2.46855 57.3872C3.30215 58.0637 4.33105 58.431 5.39082 58.431C6.2377 58.431 7.06328 58.1929 7.78691 57.7531C7.60508 57.6429 7.42793 57.5231 7.26055 57.3872Z" fill="#C99382"/>
<path d="M15.7086 61.4794C14.4801 60.7555 13.2109 60.1669 11.8432 59.7327C11.2148 60.4786 10.5605 61.1063 9.93397 61.6149C8.63768 62.6667 7.03807 63.2379 5.39061 63.2379C3.96796 63.2379 2.58143 62.811 1.39471 62.0173C1.92557 64.2653 2.60077 66.4536 3.41151 68.5703C4.06151 68.6448 4.72167 68.6834 5.39061 68.6834C10.7025 68.6834 15.4744 66.27 18.759 62.4361C18.2824 62.2814 17.7599 62.1745 17.1863 62.1255C16.6414 62.079 16.3512 61.858 15.7086 61.4794Z" fill="#3C58A0"/>
<path d="M43.7268 62.0295C51.1379 62.0295 57.1457 56.9015 57.1457 50.5759C57.1457 44.2503 51.1379 39.1223 43.7268 39.1223C36.3157 39.1223 30.3078 44.2503 30.3078 50.5759C30.3078 56.9015 36.3157 62.0295 43.7268 62.0295Z" fill="#E3E4EA"/>
<path d="M50.3125 83.3303C50.3281 84.2273 50.2433 85.146 50.1515 85.7585C49.7183 87.7533 49.0929 89.4903 48.2929 90.9207C47.9302 91.5692 47.4777 92.1588 46.9478 92.6731L46.88 92.739V93.1857C46.88 93.6488 47.0523 94.0772 47.3455 94.4716C48.9871 94.368 50.3826 94.0204 51.4826 93.6247C52.8066 93.1482 53.3863 91.5082 52.6629 90.2552C50.9593 87.305 51.2132 83.3303 51.2132 83.3303H50.3125Z" fill="#2A428C"/>
<path d="M52.6628 90.255C52.5031 89.9783 52.3605 89.6924 52.2334 89.4018C50.2507 90.6034 49.4585 88.9008 49.4585 88.9008C49.4585 88.9008 49.4074 88.8222 49.3134 88.6763C49.0138 89.4899 48.6734 90.2401 48.2929 90.9205C47.9302 91.5691 47.4777 92.1587 46.9478 92.673L46.88 92.7389V93.1856C46.88 93.6487 47.0523 94.077 47.3455 94.4715C48.9871 94.3679 50.3826 94.0203 51.4826 93.6246C52.8068 93.1483 53.3865 91.5081 52.6628 90.255Z" fill="#1C2E7A"/>
<path d="M35.9766 93.6247C37.0766 94.0204 38.4721 94.368 40.1137 94.4716C40.407 94.0771 40.5791 93.649 40.5791 93.1857V92.637L40.5141 92.5714C40.0291 92.0823 39.6113 91.527 39.2723 90.9206C38.4719 89.4892 37.8467 87.7529 37.4141 85.7603C37.3193 85.1825 37.2336 84.2486 37.2527 83.3301H36.2457C36.2457 83.3301 36.4996 87.3047 34.7961 90.2549C34.0729 91.5082 34.6525 93.1484 35.9766 93.6247Z" fill="#1C2E7A"/>
<path d="M47.629 71.8765C46.6085 71.3263 45.3394 70.9445 43.7827 70.9445C42.2261 70.9445 40.9569 71.3263 39.9364 71.8765C37.7023 73.0808 36.3255 75.4724 36.3255 78.0528V81.236L36.3257 81.237C36.678 81.2285 37.0679 81.3491 37.3191 81.524C37.4116 81.2076 37.5382 80.9336 37.7095 80.7321C37.8636 80.5507 37.9603 80.3262 37.9671 80.086C37.9933 79.167 38.2241 76.9954 39.7728 76.1642C40.2042 75.9326 40.7314 76.1093 40.9737 76.5483C41.9066 78.2383 44.0827 80.4654 48.922 79.5162C49.2652 79.4489 49.5878 79.7156 49.5984 80.0803C49.5984 80.0821 49.5985 80.0842 49.5985 80.086C49.6054 80.3262 49.7021 80.5507 49.8562 80.7321C50.0273 80.9338 50.154 81.2076 50.2466 81.524C50.4978 81.3491 50.8876 81.2285 51.24 81.237V81.236V78.0528C51.24 75.4724 49.8632 73.0808 47.629 71.8765Z" fill="#2A428C"/>
<path d="M43.6896 78.9487C41.2911 74.161 45.7974 71.1779 45.7974 71.1779C45.1868 71.0304 44.5171 70.9445 43.7827 70.9445C42.2261 70.9445 40.9569 71.3263 39.9364 71.8765C37.7023 73.0808 36.3255 75.4724 36.3255 78.0528V81.236L36.3257 81.237C36.678 81.2285 37.0679 81.3491 37.3191 81.524C37.4116 81.2076 37.5382 80.9336 37.7095 80.7321C37.8636 80.5507 37.9603 80.3262 37.9671 80.086C37.9933 79.167 38.2241 76.9954 39.7728 76.1642C40.2042 75.9326 40.7314 76.1093 40.9737 76.5483C41.478 77.462 42.347 78.5315 43.8023 79.1726C43.7644 79.0979 43.7269 79.0232 43.6896 78.9487Z" fill="#1C2E7A"/>
<path d="M37.2574 85.7917C37.2574 85.7917 36.8529 83.1171 37.3187 81.524C36.8961 81.2295 36.0793 81.0858 35.7121 81.4612C34.9602 82.2293 35.5111 83.3893 35.7748 84.1222C35.8557 84.3471 35.908 84.5746 35.9316 84.8028C35.983 85.2981 36.24 86.0232 37.3059 86.006C37.2896 85.9346 37.2732 85.8642 37.2574 85.7917Z" fill="#895B69"/>
<path d="M51.8534 81.4611C51.486 81.0858 50.6694 81.2297 50.2468 81.5239C50.7126 83.1168 50.3081 85.7917 50.3081 85.7917C50.2923 85.8641 50.2759 85.9345 50.2597 86.0057C51.3255 86.0229 51.5825 85.2978 51.6339 84.8025C51.6575 84.5745 51.7097 84.347 51.7907 84.1219C52.0544 83.3892 52.6054 82.2292 51.8534 81.4611Z" fill="#C99382"/>
<path d="M50.3095 11.1982C50.3252 12.0951 50.2404 13.0139 50.1486 13.6263C49.7154 15.6212 49.09 17.3582 48.29 18.7885C47.9273 19.4371 47.4748 20.0267 46.9449 20.541L46.8771 20.6069V21.0536C46.8771 21.5167 47.0494 21.9451 47.3426 22.3393C48.9842 22.2357 50.3797 21.8881 51.4797 21.4924C52.8037 21.0159 53.3834 19.3759 52.6599 18.1228C50.9564 15.1727 51.2103 11.198 51.2103 11.198H50.3095V11.1982Z" fill="#2A428C"/>
<path d="M52.6601 18.123C52.5004 17.8462 52.3578 17.5603 52.2306 17.2697C50.248 18.4713 49.4558 16.7687 49.4558 16.7687C49.4558 16.7687 49.4047 16.6901 49.3107 16.5442C49.0111 17.3579 48.6707 18.1081 48.2902 18.7885C47.9275 19.437 47.475 20.0266 46.9451 20.5409L46.8773 20.6068V21.0535C46.8773 21.5166 47.0496 21.945 47.3428 22.3392C48.9842 22.2356 50.3799 21.888 51.4799 21.4923C52.8039 21.016 53.3834 19.3758 52.6601 18.123Z" fill="#1C2E7A"/>
<path d="M35.9736 21.4924C37.0736 21.8881 38.4691 22.2357 40.1108 22.3393C40.4041 21.9448 40.5762 21.5167 40.5762 21.0536V20.5049L40.5111 20.4394C40.0262 19.9502 39.6084 19.3949 39.2693 18.7885C38.469 17.3571 37.8438 15.6208 37.4111 13.6282C37.3164 13.0504 37.2309 12.1166 37.2498 11.198H36.2428C36.2428 11.198 36.4967 15.1727 34.7932 18.1228C34.0699 19.3759 34.6496 21.0161 35.9736 21.4924Z" fill="#1C2E7A"/>
<path d="M37.2546 13.6594C37.2546 13.6594 36.8501 10.9847 37.3159 9.39168C36.8933 9.0972 36.0765 8.95352 35.7093 9.32883C34.9573 10.097 35.5083 11.257 35.772 11.9898C35.8529 12.2147 35.9052 12.4423 35.9288 12.6704C35.9802 13.1657 36.2372 13.8908 37.303 13.8737C37.2868 13.8023 37.2702 13.7321 37.2546 13.6594Z" fill="#FD995B"/>
<path d="M51.8504 9.32876C51.483 8.95346 50.6664 9.09734 50.2437 9.39162C50.7096 10.9845 50.3051 13.6593 50.3051 13.6593C50.2893 13.7318 50.2728 13.8022 50.2568 13.8734C51.3227 13.8906 51.5797 13.1655 51.6311 12.6702C51.6547 12.4422 51.7068 12.2147 51.7879 11.9896C52.0514 11.2569 52.6023 10.0969 51.8504 9.32876Z" fill="#FCAD6D"/>
<path d="M80.6496 34.9076C76.4064 35.5117 76.0033 38.0253 76.0013 38.9476C76.0009 39.141 75.8984 39.3202 75.732 39.4049C73.525 40.5267 74.7148 45.9338 74.7148 45.9338C74.9365 45.9493 75.2689 46.1481 75.442 46.2357C75.4843 45.9602 75.5535 45.6889 75.6511 45.4267C75.7256 45.2269 75.8187 45.0251 75.9349 44.8344C76.1369 44.5036 76.2287 44.1132 76.2013 43.723C76.122 42.5951 76.0597 40.4773 77.4847 39.8073C78.692 39.2398 80.1728 39.5684 81.1172 39.8965C81.7304 40.1096 82.3947 40.1096 83.008 39.8965C83.9523 39.5684 85.4332 39.2398 86.6404 39.8073C88.0613 40.4753 88.0029 42.5824 87.9246 43.7134C87.8972 44.1067 87.9867 44.501 88.1902 44.8344C88.3103 45.0312 88.4056 45.24 88.4812 45.4461C88.5752 45.7024 88.642 45.9671 88.6834 46.2359C88.9015 46.1255 89.3136 45.9002 89.5802 45.9395C89.6129 44.7573 89.7173 43.4826 89.7173 43.4826C90.9746 37.0476 85.2181 34.2572 80.6496 34.9076Z" fill="#2A428C"/>
<path d="M80.6496 34.9081C76.4064 35.5121 76.0033 38.0258 76.0013 38.948C76.0009 39.1415 75.8984 39.3207 75.732 39.4054C73.525 40.5272 74.7148 45.9343 74.7148 45.9343C74.9365 45.9498 75.2689 46.1486 75.442 46.2361C75.4843 45.9606 75.5535 45.6894 75.6511 45.4272C75.7256 45.2274 75.8187 45.0255 75.9349 44.8349C76.1369 44.5041 76.2287 44.1137 76.2013 43.7235C76.122 42.5955 76.0597 40.4778 77.4847 39.8078C78.6919 39.2403 80.1728 39.5688 81.1171 39.897C81.3755 39.9868 81.6429 40.0364 81.9117 40.0505C81.8705 39.9766 81.8265 39.9033 81.7773 39.8311C79.957 37.1578 82.4873 35.2097 82.9755 34.8693C82.1925 34.7877 81.4048 34.8005 80.6496 34.9081Z" fill="#1C2E7A"/>
<path d="M89.9566 46.0927C89.6261 45.7762 88.9679 45.9366 88.6831 46.1305C88.7455 46.5362 88.749 46.9513 88.6953 47.3611L88.3593 49.9172C88.3593 50.1233 88.3531 50.3253 88.3417 50.5239C89.1607 50.782 89.5675 50.0137 89.6361 49.4865C89.6656 49.2596 89.7138 49.0359 89.7806 48.8176C89.9986 48.1068 90.7845 46.8856 89.9566 46.0927Z" fill="#FCAD6D"/>
<path d="M74.1683 46.0927C74.4988 45.7762 75.1572 45.9366 75.4417 46.1305C75.3794 46.5362 75.3759 46.9513 75.4296 47.3611L75.7656 49.9172C75.7656 50.1233 75.7718 50.3253 75.7832 50.5239C74.9642 50.782 74.5574 50.0137 74.4888 49.4865C74.4593 49.2596 74.4111 49.0359 74.3443 48.8176C74.1263 48.1068 73.3404 46.8856 74.1683 46.0927Z" fill="#FD995B"/>
<path d="M88.5814 45.3408C88.5059 45.1347 88.4105 44.9259 88.2904 44.7292C88.0871 44.3957 87.9977 44.0014 88.0248 43.6082C88.1031 42.4771 88.0611 40.2653 86.6402 39.5972C85.433 39.0296 83.9523 39.3582 83.008 39.6863C82.3947 39.8994 81.7301 39.8994 81.1168 39.6863C80.1725 39.3582 78.6916 39.0296 77.4846 39.5972C76.0596 40.2672 76.0215 42.4898 76.1008 43.6177C76.1283 44.0079 76.0363 44.3984 75.8344 44.7292C75.718 44.92 75.625 45.1218 75.5506 45.3214C75.3092 45.9694 75.2389 46.6724 75.3291 47.3606L75.665 49.9173C75.665 53.593 77.5428 56.0911 79.14 57.3872C79.9738 58.0638 81.0027 58.4311 82.0623 58.4311C83.1219 58.4311 84.1508 58.0635 84.9846 57.3872C86.5818 56.0913 88.4596 53.593 88.4596 49.9173L88.7955 47.3612C88.8851 46.6798 88.8174 45.9839 88.5814 45.3408Z" fill="#FFEDE8"/>
<path d="M83.8052 57.3872C82.208 56.0913 80.3302 53.593 80.3302 49.9173L79.9943 47.3606C79.9039 46.6724 79.9742 45.9696 80.2156 45.3214C80.29 45.1216 80.383 44.9198 80.4994 44.7292C80.7011 44.3984 80.7931 44.0079 80.7658 43.6177C80.6941 42.5978 80.7187 40.6831 81.7773 39.8304C81.5539 39.8082 81.3322 39.7612 81.1169 39.6863C80.1726 39.3582 78.6917 39.0296 77.4847 39.5972C76.0597 40.2672 76.0216 42.4898 76.1009 43.6177C76.1283 44.0079 76.0365 44.3984 75.8345 44.7292C75.7181 44.92 75.6251 45.1216 75.5507 45.3214C75.3093 45.9696 75.239 46.6722 75.3294 47.3606L75.6654 49.9173C75.6654 53.593 77.5431 56.0911 79.1404 57.3872C79.9742 58.0638 81.0031 58.4311 82.0626 58.4311C82.8843 58.4311 83.6871 58.2093 84.3951 57.7946C84.19 57.6746 83.9923 57.5393 83.8052 57.3872Z" fill="#EFCAB7"/>
<path d="M47.0909 93.1928C47.0909 92.7042 47.0909 92.8505 47.0909 92.5344C46.2758 93.2958 44.878 94.2658 43.7268 94.295C42.5756 94.266 41.1778 93.2958 40.3627 92.5344C40.3627 93.4424 40.5934 94.5354 37.862 95.9211C37.5399 96.0846 37.1954 96.2381 36.842 96.3817C36.8917 96.477 36.9407 96.573 36.992 96.6648C37.4979 97.5695 38.1153 98.3878 38.8272 99.1082C41.717 99.6846 44.6979 99.9919 47.7469 99.9988C48.8879 99.0909 49.8456 97.9668 50.5737 96.6648C50.619 96.584 50.662 96.4997 50.7057 96.416C48.8335 95.6646 47.0909 94.5942 47.0909 93.1928Z" fill="#C99382"/>
<path d="M41.528 99.5606C42.9688 98.0255 43.4733 95.8184 43.6454 94.2888C42.5102 94.2182 41.1588 93.278 40.3627 92.5343C40.3627 93.4423 40.5934 94.5353 37.862 95.921C37.5399 96.0845 37.1954 96.2379 36.842 96.3816C36.8917 96.4769 36.9407 96.5728 36.992 96.6647C37.4979 97.5694 38.1153 98.3877 38.8272 99.1081C39.7186 99.2861 40.6198 99.4351 41.528 99.5606Z" fill="#895B69"/>
<path d="M39.3449 99.212C38.5599 98.4702 37.8861 97.6087 37.3462 96.6434C37.2759 96.5177 37.2095 96.3857 37.1413 96.2567C35.6968 96.8787 34.029 97.3281 33.0615 97.5622C35.0997 98.2536 37.1966 98.8091 39.3449 99.212Z" fill="#F964B2"/>
<path d="M50.4008 96.2898C50.3383 96.4073 50.2778 96.5284 50.2135 96.6433C49.4717 97.9698 48.4779 99.1012 47.2873 99.9926C47.4756 99.9949 47.6633 100 47.852 100C50.8221 100 53.7283 99.7151 56.5487 99.1739C56.7526 98.9561 56.952 98.7335 57.1455 98.5055C56.3846 98.049 55.6653 97.8392 55.2039 97.7465C54.9494 97.6749 52.5315 97.1937 50.4008 96.2898Z" fill="#FC90CE"/>
<path d="M49.6517 80.0844C49.6484 79.9675 49.6414 79.8262 49.6283 79.6683C49.589 79.6091 49.5422 79.5548 49.4871 79.5085C49.3201 79.3681 49.1029 79.3115 48.8925 79.3528C44.2781 80.2577 42.1146 78.282 41.1117 76.4652C40.9285 76.1334 40.6111 75.9336 40.275 75.9008C39.9902 75.9832 39.7287 76.1069 39.4912 76.2722C38.139 77.213 37.9379 79.2517 37.914 80.0846C37.9078 80.3036 37.8234 80.5148 37.6697 80.6956C36.823 81.6925 37.0084 84.605 37.206 85.8041C37.6435 87.8217 38.2771 89.5808 39.0892 91.0331C39.9136 92.5073 41.1621 93.6539 42.6996 94.349C43.3882 94.6602 44.1779 94.6602 44.8664 94.349C46.4039 93.6539 47.6523 92.5073 48.4767 91.0331C49.2886 89.5815 49.9222 87.8221 50.3607 85.8007C50.5504 84.5401 50.7525 81.704 49.8963 80.6956C49.7424 80.5144 49.658 80.3032 49.6517 80.0844Z" fill="#C99382"/>
<path d="M44.7478 91.0328C43.9357 89.5806 43.3021 87.8214 42.8646 85.8039C42.667 84.6047 42.4816 81.6923 43.3283 80.6954C43.482 80.5146 43.5664 80.3033 43.5726 80.0844C43.5804 79.8097 43.608 79.4033 43.6894 78.9487C42.4228 78.3417 41.6185 77.3834 41.1115 76.465C40.9283 76.1332 40.6109 75.9334 40.2748 75.9005C39.99 75.983 39.7285 76.1066 39.491 76.2719C38.1388 77.2127 37.9377 79.2515 37.9138 80.0844C37.9076 80.3033 37.8232 80.5146 37.6695 80.6954C36.8228 81.6923 37.0082 84.6049 37.2058 85.8039C37.6433 87.8214 38.2769 89.5806 39.089 91.0328C39.9135 92.5071 41.1619 93.6536 42.6994 94.3487C43.3881 94.66 44.1777 94.66 44.8662 94.3487C45.501 94.0618 46.0855 93.6967 46.6123 93.2645C45.8631 92.6498 45.232 91.8983 44.7478 91.0328Z" fill="#C99382"/>
<path d="M36.992 24.5249C38.1846 26.6578 39.9909 28.3166 42.2155 29.3221C43.2118 29.7723 44.3541 29.7723 45.3504 29.3221C47.5748 28.3166 49.3811 26.6578 50.5737 24.5249C50.619 24.4441 50.662 24.3598 50.7055 24.2762C48.8334 23.525 47.0909 22.4546 47.0909 21.0531C47.0909 20.5646 47.0909 20.7109 47.0909 20.3948C46.2758 21.1562 44.878 22.1262 43.7268 22.1554C42.5756 22.1262 41.1778 21.1562 40.3627 20.3948C40.3627 21.3027 40.5934 22.3958 37.862 23.7815C37.5399 23.945 37.1954 24.0984 36.842 24.2421C36.8917 24.3372 36.9407 24.4331 36.992 24.5249Z" fill="#FCAD6D"/>
<path d="M43.6813 22.1518C42.5389 22.0991 41.1672 21.1461 40.3627 20.3947C40.3627 21.3026 40.5934 22.3957 37.862 23.7814C37.5399 23.9446 37.1954 24.0983 36.842 24.242C36.8917 24.3371 36.9407 24.433 36.992 24.525C37.9458 26.2305 39.2928 27.6319 40.9315 28.6395C42.7934 26.5264 43.4549 23.9522 43.6813 22.1518Z" fill="#FD995B"/>
<path d="M55.2041 25.6069C54.9494 25.5353 52.5315 25.0543 50.4008 24.1502C50.3383 24.2678 50.2778 24.389 50.2135 24.5037C49.0834 26.5243 47.3723 28.0959 45.2649 29.0485C44.3211 29.4751 43.2387 29.4751 42.2947 29.0485C40.1873 28.0959 38.4762 26.5243 37.3461 24.5037C37.2758 24.378 37.2094 24.2459 37.1412 24.1169C34.9569 25.0573 32.2608 25.6039 32.2494 25.6069C31.7881 25.6996 31.0688 25.9094 30.3078 26.3659C33.5938 30.2342 38.3873 32.6728 43.7268 32.6728C49.0662 32.6728 53.8598 30.2342 57.1457 26.3659C56.3848 25.9094 55.6654 25.6996 55.2041 25.6069Z" fill="#FC90CE"/>
<path d="M49.6488 7.95207C49.6455 7.83513 49.6385 7.69391 49.6254 7.53595C49.5861 7.47677 49.5393 7.42248 49.4842 7.37616C49.3172 7.23575 49.1 7.17922 48.8897 7.22044C44.2752 8.12533 42.1117 6.14964 41.1088 4.33292C40.9256 4.00108 40.6082 3.80109 40.2721 3.76843C39.9873 3.85088 39.7258 3.97455 39.4883 4.13986C38.1361 5.08067 37.935 7.11943 37.9111 7.95228C37.9049 8.17105 37.8205 8.38227 37.6668 8.56329C36.8201 9.56022 37.0055 12.4728 37.2031 13.6718C37.6406 15.6894 38.2742 17.4485 39.0863 18.9008C39.9107 20.3748 41.1592 21.5213 42.6967 22.2164C43.3854 22.5277 44.175 22.5277 44.8635 22.2164C46.401 21.5213 47.6494 20.3748 48.4738 18.9008C49.2857 17.4489 49.9193 15.6898 50.3578 13.6681C50.5475 12.4077 50.7496 9.57145 49.8934 8.56309C49.7395 8.38227 49.6551 8.17085 49.6488 7.95207Z" fill="#FFEDE8"/>
<path d="M44.7449 18.9006C43.9328 17.4484 43.2992 15.6892 42.8617 13.6717C42.664 12.4725 42.4787 9.5601 43.3254 8.56317C43.4791 8.38236 43.5635 8.17113 43.5697 7.95215C43.5775 7.67746 43.6051 7.27094 43.6865 6.81645C42.4199 6.20952 41.6156 5.25116 41.1086 4.3328C40.9254 4.00076 40.608 3.80096 40.2719 3.76831C39.9871 3.85076 39.7256 3.97443 39.4881 4.13974C38.1359 5.08054 37.9347 7.1193 37.9109 7.95215C37.9047 8.17113 37.8203 8.38215 37.6666 8.56317C36.8199 9.5601 37.0053 12.4727 37.2029 13.6717C37.6404 15.6892 38.274 17.4484 39.0861 18.9006C39.9105 20.3747 41.159 21.5212 42.6965 22.2163C43.3851 22.5275 44.1748 22.5275 44.8633 22.2163C45.498 21.9294 46.0826 21.5643 46.6093 21.132C45.8601 20.5176 45.2291 19.7661 44.7449 18.9006Z" fill="#EFCAB7"/>
<path d="M1.39471 62.0173C1.73553 63.4606 2.13651 64.8789 2.59413 66.2698C3.44081 65.3789 4.02889 64.3028 4.43202 63.17C3.35077 63.0228 2.31268 62.6314 1.39471 62.0173Z" fill="#1C2E7A"/>
<path d="M41.1149 28.4249C39.5457 27.4685 38.2569 26.1324 37.3461 24.5037C37.2758 24.3782 37.2094 24.2459 37.1412 24.1169C34.9569 25.0573 32.2606 25.6039 32.2494 25.6069C31.7881 25.6996 31.0688 25.9094 30.3078 26.3659C32.1455 28.5294 34.4551 30.2451 37.0678 31.3377C38.8416 30.6204 40.1506 29.5845 41.1149 28.4249Z" fill="#F964B2"/>
<path d="M77.5193 61.6149C76.8928 61.1063 76.2385 60.4786 75.6101 59.7327C74.2463 60.1665 72.9695 60.7576 71.7447 61.4794C71.1021 61.858 70.8121 62.079 70.267 62.1255C69.6935 62.1745 69.1709 62.2814 68.6945 62.4361C70.4682 64.5065 72.676 66.1614 75.1679 67.2469C77.7297 66.6428 79.3396 64.941 80.3513 63.0277C79.3263 62.7745 78.359 62.2961 77.5193 61.6149Z" fill="#1C2E7A"/>
</svg>
