<svg width="101" height="100" viewBox="0 0 101 100" fill="none" xmlns="http://www.w3.org/2000/svg">
<g clip-path="url(#clip0)">
<path d="M12.0125 81.0905H88.9875C95.1625 73.0534 98.8305 63.0254 98.8305 52.1481C98.8305 25.7202 77.1922 4.29614 50.5 4.29614C23.8078 4.29614 2.16956 25.7202 2.16956 52.1481C2.16956 63.0254 5.83751 73.0534 12.0125 81.0905Z" fill="#FC9A8D"/>
<path d="M12.0125 15.4785V81.0904C13.8615 83.4971 15.9383 85.7223 18.2061 87.741L35.9318 97.7822C37.7835 98.3613 39.6826 98.8344 41.6231 99.1912H59.3768C61.3175 98.8344 63.2164 98.3613 65.0681 97.7822L82.7938 87.741C85.0616 85.7223 87.1384 83.4971 88.9873 81.0904V15.4785H12.0125Z" fill="#EFF0F6"/>
<path d="M12.0125 81.0904C13.8615 83.497 15.9383 85.7222 18.2061 87.741L35.9318 97.7822C37.7835 98.3613 39.6826 98.8343 41.6231 99.1912H43.6036V83.3496C41.2394 78.955 45.2774 76.3183 45.2774 76.3183V73.3886C40.4442 72.1841 41.3364 68.0828 41.3364 68.0828V62.3791C38.6775 57.5707 43.9569 55.0287 43.9569 55.0287L50.8764 40.4785L43.4993 30.7175C38.7619 31.5523 38.4556 27.0875 38.4556 27.0875C25.6169 26.0013 26.8088 15.8689 26.8088 15.8689C26.6778 15.739 26.563 15.6087 26.4571 15.4783H12.0125V81.0904Z" fill="#EFF0F6"/>
<path d="M34.5709 10.0527C34.5709 13.265 31.9407 15.8691 28.6963 15.8691H88.9876V10.0527H34.5709Z" fill="#EFF0F6"/>
<path d="M12.0125 10.0527V15.8691H29.0908C32.3352 15.8691 34.9654 13.265 34.9654 10.0527H12.0125Z" fill="#8DB2FC"/>
<path d="M26.8086 10.4305C26.6818 10.3049 26.5774 10.1787 26.4894 10.0527H12.0125V15.8691H26.8086C24.1662 13.2529 26.8086 10.4305 26.8086 10.4305Z" fill="#8DB2FC"/>
<path d="M85.6255 0H15.3745C13.5178 0 12.0125 1.49023 12.0125 3.32871V10.4004H88.9873V3.32871C88.9875 1.49023 87.4824 0 85.6255 0Z" fill="#3C58A0"/>
<path d="M15.3745 0C13.5178 0 12.0125 1.49023 12.0125 3.32871V10.4004H26.7802C25.2715 8.86602 26.8086 7.25137 26.8086 7.25137V3.14902C25.2056 1.56191 26.8086 0 26.8086 0L15.3745 0Z" fill="#2A428C"/>
<path d="M20.7235 7.25139C21.8677 7.25139 22.7952 6.33305 22.7952 5.20022C22.7952 4.06739 21.8677 3.14905 20.7235 3.14905C19.5794 3.14905 18.6519 4.06739 18.6519 5.20022C18.6519 6.33305 19.5794 7.25139 20.7235 7.25139Z" fill="#FF5E5E"/>
<path d="M26.8086 7.25139C27.9528 7.25139 28.8803 6.33305 28.8803 5.20022C28.8803 4.06739 27.9528 3.14905 26.8086 3.14905C25.6645 3.14905 24.7369 4.06739 24.7369 5.20022C24.7369 6.33305 25.6645 7.25139 26.8086 7.25139Z" fill="#FFDD40"/>
<path d="M32.8937 7.25139C34.0379 7.25139 34.9654 6.33305 34.9654 5.20022C34.9654 4.06739 34.0379 3.14905 32.8937 3.14905C31.7495 3.14905 30.822 4.06739 30.822 5.20022C30.822 6.33305 31.7495 7.25139 32.8937 7.25139Z" fill="#92E6A0"/>
<path d="M70.3606 6.66504H40.9865C40.1694 6.66504 39.507 6.00938 39.507 5.2002C39.507 4.39102 40.1694 3.73535 40.9865 3.73535H70.3608C71.1778 3.73535 71.8402 4.39102 71.8402 5.2002C71.84 6.00938 71.1776 6.66504 70.3606 6.66504Z" fill="#1C2E7A"/>
<path d="M81.0224 6.66504H77.2509C76.4338 6.66504 75.7714 6.00938 75.7714 5.2002C75.7714 4.39102 76.4338 3.73535 77.2509 3.73535H81.0224C81.8394 3.73535 82.5019 4.39102 82.5019 5.2002C82.5019 6.00938 81.8394 6.66504 81.0224 6.66504Z" fill="#1C2E7A"/>
<path d="M57.3964 83.3496H43.6036C42.5088 83.3496 41.6213 84.2283 41.6213 85.3123V99.1914C44.4998 99.7205 47.4667 100 50.5 100C53.5334 100 56.5002 99.7205 59.3785 99.1912V85.3121C59.3785 84.2283 58.491 83.3496 57.3964 83.3496Z" fill="#92E6A0"/>
<path d="M80.83 83.3496H67.0372C65.9424 83.3496 65.0549 84.2283 65.0549 85.3123V97.7898C71.712 95.7107 77.7462 92.2434 82.8121 87.7307V85.3121C82.8121 84.2283 81.9247 83.3496 80.83 83.3496Z" fill="#FC9A8D"/>
<path d="M33.9629 83.3496H20.1701C19.0752 83.3496 18.1877 84.2283 18.1877 85.3123V87.7309C23.2537 92.2436 29.2879 95.7108 35.945 97.7901V85.3125C35.9452 84.2283 35.0577 83.3496 33.9629 83.3496Z" fill="#8DB2FC"/>
<path d="M27.0664 76.3184H25.178C24.3609 76.3184 23.6985 75.6627 23.6985 74.8535C23.6985 74.0443 24.3609 73.3887 25.178 73.3887H27.0664C27.8835 73.3887 28.5459 74.0443 28.5459 74.8535C28.5459 75.6625 27.8835 76.3184 27.0664 76.3184Z" fill="#C1C0D4"/>
<path d="M36.2695 76.3184H32.0174C31.2004 76.3184 30.5379 75.6627 30.5379 74.8535C30.5379 74.0443 31.2004 73.3887 32.0174 73.3887H36.2695C37.0866 73.3887 37.749 74.0443 37.749 74.8535C37.749 75.6625 37.0866 76.3184 36.2695 76.3184Z" fill="#C1C0D4"/>
<path d="M47.1658 76.3184H45.2774C44.4603 76.3184 43.7979 75.6627 43.7979 74.8535C43.7979 74.0443 44.4603 73.3887 45.2774 73.3887H47.1658C47.9829 73.3887 48.6453 74.0443 48.6453 74.8535C48.6453 75.6625 47.9829 76.3184 47.1658 76.3184Z" fill="#C1C0D4"/>
<path d="M56.3687 76.3184H52.1166C51.2996 76.3184 50.6371 75.6627 50.6371 74.8535C50.6371 74.0443 51.2996 73.3887 52.1166 73.3887H56.3687C57.1858 73.3887 57.8482 74.0443 57.8482 74.8535C57.8482 75.6625 57.186 76.3184 56.3687 76.3184Z" fill="#C1C0D4"/>
<path d="M67.2652 76.3184H65.3768C64.5597 76.3184 63.8973 75.6627 63.8973 74.8535C63.8973 74.0443 64.5597 73.3887 65.3768 73.3887H67.2652C68.0823 73.3887 68.7447 74.0443 68.7447 74.8535C68.7447 75.6625 68.0823 76.3184 67.2652 76.3184Z" fill="#C1C0D4"/>
<path d="M76.4683 76.3184H72.2162C71.3991 76.3184 70.7367 75.6627 70.7367 74.8535C70.7367 74.0443 71.3991 73.3887 72.2162 73.3887H76.4683C77.2853 73.3887 77.9477 74.0443 77.9477 74.8535C77.9477 75.6625 77.2853 76.3184 76.4683 76.3184Z" fill="#C1C0D4"/>
<path d="M50.8232 55.7259C58.0662 55.7259 63.7413 50.6808 63.7413 50.6808C66.447 47.6624 68.0912 43.6902 68.0912 39.3371C68.0912 29.8947 60.3602 22.24 50.8232 22.24C41.2862 22.24 33.5551 29.8947 33.5551 39.3371C33.5551 43.6902 35.1994 47.6624 37.905 50.6808C37.9054 50.6814 43.5804 55.7259 50.8232 55.7259Z" fill="#8DB2FC"/>
<path d="M38.4925 27.3699C35.439 30.4539 33.5551 34.6773 33.5551 39.3373C33.5551 43.6904 35.1994 47.6627 37.905 50.681C37.9052 50.6812 40.3346 52.8398 44.0418 54.3332L50.5946 41.0607L43.8698 30.5746C39.8613 31.2808 38.6549 28.3369 38.4925 27.3699Z" fill="#8DB2FC"/>
<path d="M57.1603 36.8344C57.1753 37.6524 57.0938 38.4901 57.0054 39.0487C56.5886 40.8678 55.9868 42.4516 55.2168 43.7561C54.8677 44.3475 54.4323 44.8852 53.9224 45.3542L53.8571 45.4141V45.8215C53.8571 46.2438 54.0228 46.6344 54.3051 46.994C55.8848 46.8995 57.2278 46.5827 58.2865 46.2217C59.5608 45.7874 60.1185 44.2917 59.4223 43.1491C57.7831 40.4586 58.0273 36.8342 58.0273 36.8342H57.1603V36.8344Z" fill="#2A428C"/>
<path d="M59.4222 43.1492C59.2683 42.8969 59.1312 42.6362 59.0087 42.3711C57.1008 43.467 56.3383 41.9143 56.3383 41.9143C56.3383 41.9143 56.289 41.8426 56.1987 41.7096C55.9103 42.4516 55.5828 43.1358 55.2167 43.7561C54.8675 44.3475 54.4322 44.8852 53.9222 45.3541L53.8569 45.4141V45.8215C53.8569 46.2438 54.0226 46.6344 54.3049 46.994C55.8846 46.8994 57.2276 46.5826 58.2863 46.2217C59.5607 45.7875 60.1185 44.2918 59.4222 43.1492Z" fill="#1C2E7A"/>
<path d="M43.3638 46.2219C44.4223 46.5828 45.7655 46.8996 47.3452 46.9942C47.6275 46.6346 47.7932 46.244 47.7932 45.8217V45.3213L47.7306 45.2615C47.2641 44.8157 46.8619 44.309 46.5356 43.7563C45.7653 42.4508 45.1636 40.8676 44.7474 39.0506C44.6562 38.5239 44.5738 37.6723 44.5921 36.8346H43.623C43.623 36.8346 43.8672 40.459 42.2279 43.1494C41.5317 44.2918 42.0896 45.7875 43.3638 46.2219Z" fill="#1C2E7A"/>
<path d="M54.5777 26.3896C53.5955 25.8878 52.3742 25.5398 50.876 25.5398C49.378 25.5398 48.1565 25.8878 47.1743 26.3896C45.0243 27.4878 43.6993 29.6687 43.6993 32.0218V34.9246L43.6995 34.9255C44.0386 34.9177 44.4138 35.0277 44.6554 35.1872C44.7444 34.8988 44.8663 34.649 45.0312 34.4652C45.1796 34.2998 45.2725 34.0951 45.2792 33.8759C45.3044 33.0378 45.5266 31.0576 47.0169 30.2996C47.4321 30.0884 47.9395 30.2496 48.1727 30.6499C49.0704 32.1912 51.1646 34.222 55.8218 33.3564C56.1521 33.2951 56.4626 33.5382 56.4728 33.8708C56.4728 33.8726 56.473 33.8744 56.473 33.8761C56.4795 34.0951 56.5726 34.2997 56.721 34.4654C56.8857 34.6492 57.0076 34.899 57.0966 35.1874C57.3382 35.0279 57.7134 34.9179 58.0525 34.9257L58.0527 34.9247V32.022C58.0527 29.6687 56.7279 27.4878 54.5777 26.3896Z" fill="#2A428C"/>
<path d="M50.7866 32.8388C48.4784 28.4728 52.8151 25.7527 52.8151 25.7527C52.2275 25.6181 51.583 25.5398 50.8762 25.5398C49.3782 25.5398 48.1567 25.8878 47.1745 26.3896C45.0245 27.4878 43.6995 29.6687 43.6995 32.0218V34.9246L43.6997 34.9255C44.0388 34.9177 44.414 35.0277 44.6556 35.1873C44.7448 34.8988 44.8665 34.649 45.0312 34.4652C45.1795 34.2998 45.2727 34.0951 45.2792 33.8759C45.3044 33.0378 45.5265 31.0576 47.0169 30.2996C47.4321 30.0884 47.9395 30.2496 48.1727 30.6499C48.6579 31.4832 49.4943 32.4585 50.8949 33.0429C50.8586 32.9748 50.8225 32.9066 50.7866 32.8388Z" fill="#1C2E7A"/>
<path d="M44.5965 39.079C44.5965 39.079 44.2073 36.6399 44.6554 35.1874C44.2487 34.9188 43.4628 34.7878 43.1093 35.1299C42.3855 35.8305 42.9158 36.8883 43.1696 37.5565C43.2476 37.7616 43.2979 37.9692 43.3206 38.177C43.3699 38.6288 43.6172 39.2899 44.643 39.2743C44.6274 39.2092 44.6117 39.1452 44.5965 39.079Z" fill="#EFCAB7"/>
<path d="M58.6429 35.1299C58.2894 34.7878 57.5035 34.9188 57.0968 35.1874C57.5452 36.6399 57.1559 39.079 57.1559 39.079C57.1408 39.1452 57.125 39.2092 57.1094 39.2743C58.135 39.2899 58.3823 38.6288 58.4319 38.177C58.4545 37.9692 58.5048 37.7616 58.5828 37.5565C58.8364 36.8881 59.3667 35.8303 58.6429 35.1299Z" fill="#FFEDE8"/>
<path d="M44.3009 49.0041C45.4559 50.9611 47.2051 52.4834 49.3594 53.4062C50.3242 53.8195 51.4307 53.8195 52.3953 53.4062C54.5495 52.4834 56.2988 50.9613 57.4538 49.0041C57.4954 48.9337 57.5349 48.8601 57.5749 48.7875C55.7601 48.1017 54.0616 47.121 54.0616 45.8347C54.0616 45.3892 54.0616 45.5226 54.0616 45.2341C53.2769 45.9287 51.9314 46.8136 50.8231 46.8402C49.7149 46.8136 48.3693 45.9287 47.5846 45.2341C47.5846 46.0625 47.8067 47.0595 45.1772 48.3236C44.8572 48.4775 44.5142 48.6218 44.1624 48.7564C44.2082 48.8396 44.2534 48.9236 44.3009 49.0041Z" fill="#FFEDE8"/>
<path d="M50.7563 46.8354C49.6611 46.7764 48.3536 45.9149 47.5845 45.234C47.5845 46.0623 47.8066 47.0594 45.177 48.3235C44.8571 48.4774 44.514 48.6217 44.1623 48.7563C44.2081 48.8397 44.2534 48.9237 44.3008 49.0041C45.1899 50.5106 46.4318 51.7579 47.9386 52.6739C49.7893 50.8442 50.4969 48.5512 50.7563 46.8354Z" fill="#EFCAB7"/>
<path d="M61.872 49.9886C61.6268 49.9232 59.2992 49.4845 57.2479 48.6599C57.1877 48.7671 57.1293 48.8777 57.0676 48.9824C55.9798 50.8255 54.3325 52.2591 52.3036 53.1281C51.395 53.5171 50.353 53.5171 49.4444 53.1281C47.4155 52.2589 45.7684 50.8255 44.6805 48.9824C44.6128 48.8677 44.5489 48.7472 44.4832 48.6296C42.3803 49.4876 39.7847 49.9861 39.7739 49.9888C39.3296 50.0732 38.6372 50.2648 37.9048 50.6812C41.0681 54.2099 45.6828 56.4343 50.8229 56.4343C55.9631 56.4343 60.5779 54.2099 63.741 50.681C63.0086 50.2644 62.3162 50.073 61.872 49.9886Z" fill="#FC9A8D"/>
<path d="M56.5243 33.8744C56.521 33.7678 56.5143 33.6391 56.5016 33.4949C56.4638 33.4408 56.4188 33.3914 56.3657 33.3492C56.2051 33.2213 55.996 33.1698 55.7936 33.2071C51.3528 34.0323 49.2709 32.2305 48.3055 30.5739C48.1291 30.2711 47.8237 30.0889 47.5002 30.0592C47.2262 30.1344 46.9745 30.2471 46.7459 30.3979C45.4447 31.2557 45.251 33.1149 45.2281 33.8744C45.2222 34.074 45.1407 34.2666 44.993 34.4315C44.1781 35.3405 44.3566 37.9965 44.5468 39.0901C44.9677 40.9299 45.5777 42.5342 46.359 43.8584C47.1524 45.2028 48.3538 46.2483 49.8335 46.8821C50.4963 47.1658 51.2561 47.1658 51.9188 46.8821C53.3984 46.2483 54.5998 45.2028 55.3932 43.8584C56.1746 42.5346 56.7843 40.9303 57.2063 39.0869C57.3889 37.9375 57.5832 35.3512 56.7593 34.4317C56.6115 34.2666 56.5302 34.0739 56.5243 33.8744Z" fill="#FFEDE8"/>
<path d="M51.8049 43.8585C51.0236 42.5343 50.4136 40.93 49.9927 39.0901C49.8025 37.9966 49.6242 35.3407 50.4389 34.4315C50.5868 34.2667 50.6681 34.0739 50.674 33.8745C50.6815 33.6239 50.708 33.2534 50.7865 32.8389C49.5676 32.2854 48.7935 31.4116 48.3055 30.5741C48.1291 30.2714 47.8237 30.0891 47.5002 30.0594C47.2262 30.1346 46.9745 30.2473 46.7459 30.3981C45.4447 31.2559 45.251 33.1151 45.2281 33.8747C45.2222 34.0743 45.1407 34.2669 44.993 34.4317C44.1781 35.3407 44.3566 37.9968 44.5468 39.0903C44.9677 40.9302 45.5777 42.5344 46.359 43.8587C47.1524 45.203 48.3538 46.2485 49.8335 46.8823C50.4963 47.1661 51.2562 47.1661 51.9188 46.8823C52.5297 46.6206 53.0923 46.2878 53.5991 45.8936C52.8783 45.3331 52.2709 44.6477 51.8049 43.8585Z" fill="#FFEDE8"/>
<path d="M50.5 85.3123C50.5 84.2283 51.3875 83.3496 52.4823 83.3496H43.6036C42.5088 83.3496 41.6213 84.2283 41.6213 85.3123V99.1914C44.4998 99.7205 47.4667 100 50.5 100V85.3123Z" fill="#92E6A0"/>
<path d="M73.9336 85.3123C73.9336 84.2283 74.8211 83.3496 75.9157 83.3496H67.0372C65.9424 83.3496 65.0549 84.2283 65.0549 85.3123V97.7898C68.1626 96.8191 71.1325 95.5424 73.9334 94.0018V85.3123H73.9336Z" fill="#FC9A8D"/>
<path d="M27.0665 85.3123C27.0665 84.2283 27.954 83.3496 29.0486 83.3496H20.1701C19.0752 83.3496 18.1877 84.2283 18.1877 85.3123V87.7309C20.8887 90.1369 23.8672 92.2422 27.0663 94.0017V85.3123H27.0665Z" fill="#8DB2FC"/>
<path d="M73.5878 68.0826H65.9068C64.3161 68.0826 63.0266 66.8059 63.0266 65.2309C63.0266 63.6559 64.3161 62.3792 65.9068 62.3792H73.5878C75.1785 62.3792 76.468 63.6559 76.468 65.2309C76.468 66.8059 75.1785 68.0826 73.5878 68.0826Z" fill="#92E6A0"/>
<path d="M69.1951 65.2309C69.1951 63.6559 70.4846 62.3792 72.0754 62.3792H65.9069C64.3161 62.3792 63.0266 63.6559 63.0266 65.2309C63.0266 66.8059 64.3161 68.0826 65.9069 68.0826H72.0754C70.4846 68.0826 69.1951 66.8059 69.1951 65.2309Z" fill="#92E6A0"/>
<path d="M54.6144 62.3792H28.0583C26.4675 62.3792 25.178 63.6559 25.178 65.2309C25.178 66.8059 26.4675 68.0826 28.0583 68.0826H54.6144C56.2051 68.0826 57.4947 66.8059 57.4947 65.2309C57.4947 63.6559 56.2051 62.3792 54.6144 62.3792Z" fill="#8DB2FC"/>
<path d="M38.0843 65.2309C38.0843 63.6559 39.3738 62.3792 40.9646 62.3792H28.0583C26.4675 62.3792 25.178 63.6559 25.178 65.2309C25.178 66.8059 26.4675 68.0826 28.0583 68.0826H40.9646C39.3738 68.0826 38.0843 66.8059 38.0843 65.2309Z" fill="#8DB2FC"/>
<path d="M48.146 52.4619C46.7094 51.5971 45.5256 50.4141 44.6807 48.9823C44.613 48.8676 44.5491 48.7471 44.4834 48.6295C42.3806 49.4875 39.7849 49.986 39.7741 49.9887C39.3298 50.0731 38.6374 50.2647 37.905 50.6811C39.5668 52.5348 41.6296 54.0278 43.9581 55.0284C45.7952 54.434 47.1487 53.5157 48.146 52.4619Z" fill="#FC9A8D"/>
</g>
<defs>
<clipPath id="clip0">
<rect width="101" height="100" fill="white"/>
</clipPath>
</defs>
</svg>
