<svg width="100" height="100" viewBox="0 0 100 100" fill="none" xmlns="http://www.w3.org/2000/svg">
<path d="M2.77019 67.8846H97.2298C99.0227 62.9559 100 57.6616 100 52.1481C100 25.7202 77.6142 4.29614 49.9999 4.29614C22.3856 4.29614 0 25.7202 0 52.1481C0 57.6616 0.977341 62.9557 2.77019 67.8846Z" fill="#4CE088"/>
<path d="M2.77002 15.4785V67.8846C6.33877 77.6959 13.1514 86.052 21.9772 91.7801L78.0161 91.7842C86.845 86.0561 93.66 77.6983 97.2296 67.8846V15.4785H2.77002Z" fill="#EFF0F6"/>
<path d="M2.77002 67.8845C6.33877 77.6958 13.1514 86.0519 21.9772 91.78L42.9252 91.7816V33.3796C35.8455 32.6876 37.5959 26.7474 37.5959 26.7474C30.3908 23.7201 34.1888 15.8689 34.1888 15.8689C34.0006 15.7404 33.8327 15.6099 33.6767 15.4783H2.77002V67.8845Z" fill="#EFF0F6"/>
<path d="M26.1078 10.0527C26.1078 13.2651 23.3868 15.8692 20.0303 15.8692H97.2297V10.0527H26.1078Z" fill="#EFF0F6"/>
<path d="M20.0303 15.8692H34.1889C30.6516 13.4543 33.0665 10.4004 33.0665 10.4004C32.9443 10.2834 32.8363 10.1674 32.7392 10.0527H26.1078C26.1078 13.2651 23.3868 15.8692 20.0303 15.8692Z" fill="#EFF0F6"/>
<path d="M2.77002 10.0527V15.8692H20.4382C23.7948 15.8692 26.5158 13.2651 26.5158 10.0527H2.77002Z" fill="#8DB2FC"/>
<path d="M93.7517 0H6.24816C4.32736 0 2.77002 1.49024 2.77002 3.32871V10.4004H97.2296V3.32871C97.2298 1.49024 95.6725 0 93.7517 0Z" fill="#3C58A0"/>
<path d="M33.0663 0H6.24816C4.32735 0 2.77002 1.49024 2.77002 3.32871V10.4004H33.0663C30.9543 8.37911 32.7447 6.66504 32.7447 6.66504V3.73535C30.791 1.86543 33.0663 0 33.0663 0Z" fill="#2A428C"/>
<path d="M11.7824 7.25125C12.9661 7.25125 13.9256 6.33291 13.9256 5.20009C13.9256 4.06726 12.9661 3.14893 11.7824 3.14893C10.5987 3.14893 9.63916 4.06726 9.63916 5.20009C9.63916 6.33291 10.5987 7.25125 11.7824 7.25125Z" fill="#FF4155"/>
<path d="M18.0773 7.25125C19.261 7.25125 20.2206 6.33291 20.2206 5.20009C20.2206 4.06726 19.261 3.14893 18.0773 3.14893C16.8936 3.14893 15.9341 4.06726 15.9341 5.20009C15.9341 6.33291 16.8936 7.25125 18.0773 7.25125Z" fill="#FFDD40"/>
<path d="M24.3727 7.25125C25.5564 7.25125 26.516 6.33291 26.516 5.20009C26.516 4.06726 25.5564 3.14893 24.3727 3.14893C23.1891 3.14893 22.2295 4.06726 22.2295 5.20009C22.2295 6.33291 23.1891 7.25125 24.3727 7.25125Z" fill="#4CE088"/>
<path d="M77.9596 6.66502H32.7452C31.8999 6.66502 31.2146 6.00936 31.2146 5.20019C31.2146 4.39101 31.8999 3.73535 32.7452 3.73535H77.9596C78.8049 3.73535 79.4902 4.39101 79.4902 5.20019C79.4902 6.00936 78.8049 6.66502 77.9596 6.66502Z" fill="#1C2E7A"/>
<path d="M88.9898 6.66502H85.088C84.2427 6.66502 83.5574 6.00936 83.5574 5.20019C83.5574 4.39101 84.2427 3.73535 85.088 3.73535H88.9898C89.8351 3.73535 90.5204 4.39101 90.5204 5.20019C90.5204 6.00936 89.8351 6.66502 88.9898 6.66502Z" fill="#1C2E7A"/>
<path d="M22.4719 92.0968C22.4768 92.1 22.4819 92.1029 22.4868 92.106L78.5436 91.4373C78.5469 91.4351 78.5501 91.433 78.5534 91.4308C86.057 84.3857 90.7139 74.5732 90.7139 63.7183C90.7139 42.2775 72.5524 24.8962 50.1491 24.8962C27.7457 24.8962 9.58423 42.2775 9.58423 63.7183C9.58423 74.9197 14.543 85.0111 22.4719 92.0968Z" fill="#FC9A8D"/>
<path d="M22.1262 91.7801L42.9254 91.7817V33.3797C36.2269 32.725 37.433 27.3729 37.5822 26.7985C21.3311 31.8617 9.58423 46.4762 9.58423 63.7186C9.58423 74.7551 14.4005 84.7118 22.1262 91.7801Z" fill="#FC9A8D"/>
<path d="M43.0107 78.0914C45.0048 79.5734 47.4658 80.3783 50.0003 80.3783C52.5347 80.3783 54.9955 79.5732 56.9898 78.0914C58.4678 76.9929 60.0449 75.4978 61.4249 73.614C61.0553 73.5119 60.6816 73.4152 60.3037 73.3246C59.8759 73.222 59.5002 72.9759 59.2575 72.6482C58.139 71.1378 57.8292 68.8033 57.7684 67.1101C56.9837 67.9847 56.1602 68.7164 55.3733 69.3011C52.2176 71.6464 47.7789 71.6433 44.6275 69.3011C43.8405 68.7164 43.0173 67.9847 42.2326 67.1101C42.1703 68.841 41.8483 71.2423 40.6679 72.748C40.4665 73.0048 40.1563 73.2148 39.784 73.3031C39.3769 73.3996 38.9743 73.5035 38.5757 73.6136C39.9555 75.4974 41.5326 76.9927 43.0107 78.0914Z" fill="#FFEDE8"/>
<path d="M49.9126 71.0572C48.0433 71.0395 46.179 70.4545 44.627 69.301C43.84 68.7162 43.0168 67.9846 42.2321 67.11C42.1698 68.8408 41.8478 71.2422 40.6674 72.7479C40.466 73.0047 40.1558 73.2147 39.7835 73.3029C39.3764 73.3994 38.9738 73.5033 38.5752 73.6135C39.9552 75.4975 41.5323 76.9928 43.0105 78.0912C43.8349 78.7041 44.7402 79.199 45.6967 79.5713C48.7234 76.9119 49.6459 73.3426 49.9126 71.0572Z" fill="#EFCAB7"/>
<path d="M47.4023 31.9364C39.6007 32.9537 38.8593 37.187 38.8558 38.7399C38.855 39.0657 38.6665 39.3674 38.3605 39.51C34.3024 41.3993 36.4903 50.5049 36.4903 50.5049C36.8979 50.5309 37.5091 50.8657 37.8273 51.0131C37.9052 50.5491 38.0324 50.0922 38.212 49.6508C38.3489 49.3143 38.5199 48.9745 38.7338 48.6534C39.105 48.0961 39.274 47.4389 39.2236 46.7817C39.0777 44.8821 38.9634 41.3157 41.5834 40.1875C43.803 39.2317 46.5258 39.7852 48.2621 40.3377C49.3897 40.6965 50.6113 40.6965 51.7388 40.3377C53.4751 39.7852 56.1978 39.2317 58.4175 40.1875C61.0302 41.3125 60.9228 44.8608 60.7786 46.7655C60.7283 47.4276 60.8928 48.0918 61.2669 48.6532C61.4877 48.9846 61.6628 49.3362 61.802 49.6832C61.9749 50.1147 62.0977 50.5604 62.1736 51.0131C62.5747 50.8272 63.3324 50.4479 63.8228 50.5143C63.8828 48.5233 64.0749 46.3768 64.0749 46.3768C66.3865 35.5403 55.8023 30.8411 47.4023 31.9364Z" fill="#2A428C"/>
<path d="M47.4024 31.9371C39.6008 32.9544 38.8594 37.1876 38.8559 38.7406C38.8551 39.0663 38.6665 39.3681 38.3606 39.5107C34.3025 41.3999 36.4904 50.5056 36.4904 50.5056C36.898 50.5315 37.5092 50.8663 37.8273 51.0138C37.9053 50.5497 38.0324 50.0929 38.212 49.6515C38.349 49.315 38.52 48.9751 38.7339 48.654C39.1051 48.0968 39.2741 47.4396 39.2237 46.7823C39.0777 44.8827 38.9635 41.3163 41.5834 40.1882C43.803 39.2323 46.5259 39.7859 48.2622 40.3384C48.6914 40.4749 49.1342 40.5589 49.5801 40.5915C49.4957 40.4593 49.4014 40.3306 49.295 40.2066C45.6824 35.9962 50.1342 31.7997 50.1493 31.7855C49.221 31.7699 48.2991 31.8203 47.4024 31.9371Z" fill="#1C2E7A"/>
<path d="M64.5146 50.7729C63.907 50.2399 62.6966 50.51 62.1734 50.8364C62.2881 51.5196 62.2946 52.2186 62.1954 52.909L61.5779 57.2135C61.5779 57.5606 61.5664 57.901 61.5454 58.2354C63.0513 58.6702 63.7993 57.3762 63.9254 56.4883C63.9797 56.1061 64.0683 55.7293 64.1913 55.3618C64.5919 54.1647 66.037 52.108 64.5146 50.7729Z" fill="#EFCAB7"/>
<path d="M35.4856 50.7729C36.0932 50.2399 37.3035 50.51 37.8268 50.8364C37.7121 51.5196 37.7056 52.2186 37.8048 52.909L38.4223 57.2135C38.4223 57.5606 38.4337 57.901 38.4548 58.2354C36.9489 58.6702 36.2009 57.3762 36.0748 56.4883C36.0205 56.1061 35.9319 55.7293 35.8089 55.3618C35.4083 54.1647 33.9632 52.108 35.4856 50.7729Z" fill="#EFCAB7"/>
<path d="M61.9861 49.5065C61.8471 49.1594 61.6718 48.8079 61.451 48.4764C61.0771 47.9149 60.9124 47.2508 60.9626 46.5885C61.1067 44.6839 61.0296 40.9589 58.4169 39.8339C56.1974 38.878 53.4749 39.4315 51.7386 39.984C50.6111 40.343 49.389 40.343 48.2613 39.984C46.525 39.4315 43.8023 38.8782 41.583 39.8339C38.963 40.962 38.8928 44.7051 39.0385 46.6048C39.0889 47.262 38.9199 47.9192 38.5489 48.4764C38.335 48.7975 38.164 49.1376 38.0271 49.4739C37.5832 50.5653 37.4538 51.7489 37.6199 52.9079L38.2377 57.2133C38.2377 63.4032 41.6903 67.6104 44.627 69.793C46.1599 70.9323 48.0517 71.551 50 71.551C51.9484 71.551 53.84 70.9323 55.3731 69.793C58.3098 67.6104 61.7624 63.4032 61.7624 57.2133L62.38 52.9089C62.5447 51.7614 62.4198 50.5893 61.9861 49.5065Z" fill="#FFEDE8"/>
<path d="M71.6881 77.773C70.6857 77.6944 70.1524 77.3224 68.971 76.6849C66.5102 75.3567 63.9621 74.2976 61.1855 73.5526C59.8294 75.4181 58.2731 76.8958 56.8162 77.9786C54.8715 79.4237 52.4717 80.2087 50.0003 80.2087C47.5287 80.2087 45.1289 79.4237 43.1844 77.9786C41.7271 76.8954 40.1704 75.4175 38.8141 73.5513C36.0492 74.2944 33.4833 75.3603 31.0294 76.6847C29.848 77.3222 29.3147 77.6942 28.3123 77.7728C21.9203 78.273 18.9528 82.33 17.6034 86.4976C17.573 86.5919 17.5468 86.6872 17.5181 86.782C19.0011 88.7007 20.6672 90.4812 22.4868 92.1062C30.3792 97.0939 39.8343 100 50.0001 100C60.6121 100 70.45 96.8335 78.5438 91.4374C79.9942 90.0763 81.3407 88.614 82.5654 87.0585C82.5117 86.871 82.4572 86.6835 82.397 86.4976C81.0479 82.3302 78.0801 78.2731 71.6881 77.773Z" fill="#1C1B2F"/>
<path d="M43.1844 77.9786C41.7271 76.8954 40.1704 75.4175 38.8141 73.5513C36.0492 74.2944 33.4833 75.3603 31.0294 76.6847C29.848 77.3222 29.3147 77.6942 28.3123 77.7728C21.9203 78.273 18.9528 82.33 17.6034 86.4976C17.573 86.5919 17.5468 86.6872 17.5181 86.7819C19.0011 88.7007 20.6672 90.4812 22.4868 92.1062C25.0558 93.7296 27.7913 95.1308 30.6619 96.2849C30.7878 87.1308 32.2343 85.1726 41.264 82.0862C43.1783 81.4319 44.6753 80.5038 45.8465 79.4388C44.8981 79.0739 44.0008 78.5855 43.1844 77.9786Z" fill="#1C1B2F"/>
<path d="M80.9939 36.143L79.9451 37.3075C79.7182 37.5594 79.6461 37.9071 79.7553 38.2231L80.2598 39.6805C80.4141 40.1264 80.2033 40.6133 79.7645 40.8241L78.3308 41.5125C78.0198 41.662 77.8137 41.9567 77.7882 42.2889L77.67 43.8213C77.6339 44.2891 77.2453 44.6612 76.7566 44.6955L75.1553 44.8086C74.8084 44.8332 74.5002 45.0303 74.3441 45.328L73.6247 46.7C73.4045 47.12 72.8958 47.3217 72.4299 47.1739L70.907 46.691C70.577 46.5864 70.2138 46.6553 69.9503 46.8727L68.7338 47.8764C68.3627 48.1825 67.8134 48.1825 67.4423 47.8764L66.2256 46.8727C65.9621 46.6555 65.5991 46.5866 65.2689 46.691L63.746 47.1739C63.2801 47.3215 62.7714 47.1198 62.5512 46.7L61.8318 45.328C61.6757 45.0303 61.3677 44.833 61.0206 44.8086L59.4193 44.6955C58.9306 44.661 58.542 44.2891 58.5059 43.8213L58.3877 42.2889C58.3622 41.9569 58.1561 41.662 57.8451 41.5125L56.4114 40.8241C55.9726 40.6133 55.7618 40.1264 55.9163 39.6805L56.4208 38.2231C56.5302 37.9073 56.4581 37.5596 56.231 37.3075L55.1822 36.1432C54.8624 35.7881 54.8624 35.2623 55.1822 34.9073L56.231 33.7428C56.4579 33.4909 56.53 33.1432 56.4208 32.8272L55.9163 31.3698C55.762 30.9239 55.9728 30.437 56.4116 30.2262L57.8453 29.5377C58.1563 29.3883 58.3624 29.0936 58.3879 28.7614L58.5061 27.229C58.5422 26.7612 58.9308 26.3893 59.4195 26.3547L61.0208 26.2416C61.3677 26.217 61.6759 26.02 61.832 25.7223L62.5514 24.3502C62.7716 23.9303 63.2803 23.7286 63.7462 23.8764L65.2691 24.3592C65.5991 24.4639 65.9624 24.395 66.2258 24.1776L67.4423 23.1739C67.8134 22.8678 68.3627 22.8678 68.7338 23.1739L69.9505 24.1776C70.2137 24.3948 70.577 24.4637 70.9072 24.3592L72.4301 23.8764C72.896 23.7288 73.4047 23.9305 73.6249 24.3502L74.3445 25.7223C74.5007 26.02 74.8086 26.2172 75.1555 26.2416L76.7568 26.3547C77.2455 26.3893 77.6341 26.7612 77.6702 27.229L77.7884 28.7614C77.8139 29.0934 78.02 29.3883 78.331 29.5377L79.7647 30.2262C80.2035 30.437 80.4143 30.9239 80.26 31.3698L79.7555 32.8272C79.6461 33.143 79.7182 33.4907 79.9453 33.7428L80.9941 34.9071C81.3137 35.2622 81.3137 35.7879 80.9939 36.143Z" fill="#8DB2FC"/>
<path d="M65.2691 24.3591L63.7463 23.8762C63.2803 23.7286 62.7716 23.9303 62.5514 24.3501L61.832 25.7221C61.6759 26.0198 61.3679 26.2171 61.0208 26.2415L59.4195 26.3546C58.9308 26.3891 58.542 26.761 58.5061 27.2288L58.3879 28.7612C58.3624 29.0932 58.1563 29.3882 57.8453 29.5376L56.4116 30.2261C55.9728 30.4368 55.762 30.9235 55.9163 31.3696L56.4208 32.827C56.5302 33.1431 56.4581 33.4905 56.231 33.7427L55.1822 34.9071C54.8624 35.2622 54.8624 35.788 55.1822 36.1431L56.2308 37.3073C56.4579 37.5593 56.5298 37.9069 56.4206 38.2229L55.9161 39.6804C55.7618 40.1263 55.9726 40.6132 56.4114 40.8239L57.8451 41.5124C58.1561 41.6618 58.3622 41.9565 58.3877 42.2888L58.5059 43.8212C58.542 44.289 58.9306 44.6608 59.4193 44.6954L61.0206 44.8085C61.3675 44.8329 61.6757 45.0302 61.8318 45.3278L62.5512 46.6999C62.7714 47.1198 63.2801 47.3216 63.7461 47.1739L65.2689 46.6911C65.5989 46.5864 65.9622 46.6554 66.2256 46.8728L67.4424 47.8765C67.8134 48.1825 68.3628 48.1825 68.7338 47.8765L69.9503 46.8728C70.2138 46.6556 70.5768 46.5866 70.907 46.6911L72.4299 47.1739C72.8958 47.3216 73.4046 47.1198 73.6248 46.7001L74.3441 45.328C74.5003 45.0304 74.8082 44.8331 75.1554 44.8087L76.7566 44.6956C77.2454 44.661 77.6341 44.2892 77.6701 43.8214C69.573 42.438 72.0995 36.4702 72.0995 36.4702L70.3293 33.7671C62.5618 31.8671 66.2256 24.1776 66.2256 24.1776C65.9624 24.3948 65.5991 24.4637 65.2691 24.3591Z" fill="#8DB2FC"/>
<path d="M67.3821 40.3408C66.9512 40.3408 66.538 40.1769 66.2333 39.8855L62.6315 36.4383C61.9972 35.831 61.9972 34.8469 62.6315 34.2396C63.2662 33.6326 64.2943 33.633 64.9288 34.2396L67.3818 36.5875L72.041 32.1285C72.6755 31.5215 73.7039 31.5215 74.3383 32.1285C74.9726 32.7357 74.9726 33.7199 74.3383 34.3271L68.5304 39.8855C68.2259 40.1769 67.8129 40.3408 67.3821 40.3408Z" fill="#EFF0F6"/>
<path d="M74.0729 94.0935C73.6919 90.4988 72.1536 88.1699 70.7315 86.7587C69.7831 85.8177 68.1174 86.4732 68.1174 87.7804V96.7578C70.1721 95.9927 72.1605 95.1013 74.0729 94.0935Z" fill="#1C1B2F"/>
</svg>
