<svg width="892" height="783" viewBox="0 0 892 783" fill="none" xmlns="http://www.w3.org/2000/svg">
<g clip-path="url(#clip0)">
<path d="M220.748 153.803H197.939C195.419 153.803 193.377 155.846 193.377 158.365C193.377 160.885 195.419 162.927 197.939 162.927H220.748C223.268 162.927 225.31 160.885 225.31 158.365C225.31 155.846 223.268 153.803 220.748 153.803Z" fill="#C1C0D4"/>
<path d="M81.1562 80.2422L159.163 158.249H465.902V329.5" stroke="#C1C0D4" stroke-width="1.14048"/>
<path d="M470.514 194.861C470.514 192.341 468.471 190.299 465.952 190.299C463.432 190.299 461.39 192.341 461.39 194.861C461.39 197.38 463.432 199.422 465.952 199.422C468.471 199.422 470.514 197.38 470.514 194.861Z" fill="#828195"/>
<path d="M470.514 158.365C470.514 155.846 468.471 153.803 465.952 153.803C463.432 153.803 461.39 155.846 461.39 158.365C461.39 160.885 463.432 162.927 465.952 162.927C468.471 162.927 470.514 160.885 470.514 158.365Z" fill="#C1C0D4"/>
<path d="M163.724 158.365C163.724 155.846 161.682 153.803 159.163 153.803C156.643 153.803 154.601 155.846 154.601 158.365C154.601 160.885 156.643 162.927 159.163 162.927C161.682 162.927 163.724 160.885 163.724 158.365Z" fill="#92E6A0"/>
<path d="M240.137 158.365C240.137 155.846 238.094 153.803 235.575 153.803C233.055 153.803 231.013 155.846 231.013 158.365C231.013 160.885 233.055 162.927 235.575 162.927C238.094 162.927 240.137 160.885 240.137 158.365Z" fill="#828195"/>
<path d="M621.183 26.6919V108.671L584.49 145.364V343.977H537.802" stroke="#C1C0D4" stroke-width="1.14048"/>
<path d="M589.124 343.123C589.124 340.603 587.081 338.561 584.562 338.561C582.042 338.561 580 340.603 580 343.123C580 345.642 582.042 347.685 584.562 347.685C587.081 347.685 589.124 345.642 589.124 343.123Z" fill="#C1C0D4"/>
<path fill-rule="evenodd" clip-rule="evenodd" d="M226.322 282.359C226.322 282.275 226.325 282.191 226.325 282.107C226.325 236.442 189.475 199.422 144.017 199.422C110.313 199.422 81.3455 219.777 68.6173 248.914C65.3886 248.355 62.0708 248.061 58.6837 248.061C26.5963 248.061 0.583984 274.192 0.583984 306.426C0.583984 338.661 26.5963 364.792 58.6837 364.792H230.865C253.593 364.792 272.018 346.282 272.018 323.449C272.018 300.616 253.593 282.107 230.865 282.107C229.329 282.107 227.814 282.194 226.322 282.359Z" fill="url(#paint0_linear)"/>
<path fill-rule="evenodd" clip-rule="evenodd" d="M665.612 338.404C665.612 338.32 665.609 338.236 665.609 338.152C665.609 292.487 702.46 255.468 747.917 255.468C781.622 255.468 810.589 275.822 823.317 304.959C826.546 304.4 829.864 304.106 833.251 304.106C865.338 304.106 891.351 330.237 891.351 362.471C891.351 394.706 865.338 420.837 833.251 420.837H661.07C638.341 420.837 619.917 402.327 619.917 379.494C619.917 356.662 638.341 338.152 661.07 338.152C662.605 338.152 664.121 338.24 665.612 338.404Z" fill="url(#paint1_linear)"/>
<path d="M584.562 145.82V0" stroke="#C1C0D4" stroke-width="1.14048"/>
<path d="M589.124 145.82C589.124 143.3 587.081 141.258 584.562 141.258C582.042 141.258 580 143.3 580 145.82C580 148.339 582.042 150.382 584.562 150.382C587.081 150.382 589.124 148.339 589.124 145.82Z" fill="#C1C0D4"/>
<path d="M589.124 203.984C589.124 201.465 587.081 199.422 584.562 199.422C582.042 199.422 580 201.465 580 203.984C580 206.504 582.042 208.546 584.562 208.546C587.081 208.546 589.124 206.504 589.124 203.984Z" fill="#92E6A0"/>
<path d="M589.124 273.842C589.124 271.322 587.081 269.28 584.562 269.28C582.042 269.28 580 271.322 580 273.842C580 276.361 582.042 278.404 584.562 278.404C587.081 278.404 589.124 276.361 589.124 273.842Z" fill="#92E6A0"/>
<path d="M607.371 395.585C607.371 393.065 605.329 391.023 602.809 391.023C600.29 391.023 598.247 393.065 598.247 395.585C598.247 398.104 600.29 400.147 602.809 400.147C605.329 400.147 607.371 398.104 607.371 395.585Z" fill="#C1C0D4"/>
<path d="M371.517 392L344.851 418.666H150" stroke="#C1C0D4" stroke-width="1.14048"/>
<path d="M348.443 419.371C348.443 416.852 346.401 414.81 343.882 414.81C341.362 414.81 339.32 416.852 339.32 419.371C339.32 421.891 341.362 423.933 343.882 423.933C346.401 423.933 348.443 421.891 348.443 419.371Z" fill="#92E6A0"/>
<path d="M375.854 392.325C375.854 389.806 373.811 387.763 371.292 387.763C368.772 387.763 366.73 389.806 366.73 392.325C366.73 394.845 368.772 396.887 371.292 396.887C373.811 396.887 375.854 394.845 375.854 392.325Z" fill="#C1C0D4"/>
<path d="M589.124 108.184C589.124 105.665 587.081 103.622 584.562 103.622C582.042 103.622 580 105.665 580 108.184C580 110.703 582.042 112.746 584.562 112.746C587.081 112.746 589.124 110.703 589.124 108.184Z" fill="#92E6A0"/>
<path d="M587.983 54.5814C587.983 52.6917 586.451 51.1599 584.562 51.1599C582.672 51.1599 581.14 52.6917 581.14 54.5814V94.4982C581.14 96.3878 582.672 97.9196 584.562 97.9196C586.451 97.9196 587.983 96.3878 587.983 94.4982V54.5814Z" fill="#92E6A0"/>
<path d="M587.983 235.405C587.983 233.516 586.451 231.984 584.562 231.984C582.672 231.984 581.14 233.516 581.14 235.405V245.41C581.14 247.3 582.672 248.832 584.562 248.832C586.451 248.832 587.983 247.3 587.983 245.41V235.405Z" fill="#92E6A0"/>
<path d="M589.124 204.554H634.743" stroke="#C1C0D4" stroke-width="1.14048" stroke-linecap="square"/>
<path d="M536.661 395.585L781.294 396.155" stroke="#C1C0D4" stroke-width="1.14048" stroke-linecap="square"/>
<path d="M602.809 396.155L630.219 423.565H716.857" stroke="#C1C0D4" stroke-width="1.14048"/>
<path d="M403.93 392.474H371.615" stroke="#C1C0D4" stroke-width="1.14048"/>
<path d="M315.408 153.803H254.963C252.443 153.803 250.401 155.846 250.401 158.365C250.401 160.885 252.443 162.927 254.963 162.927H315.408C317.928 162.927 319.97 160.885 319.97 158.365C319.97 155.846 317.928 153.803 315.408 153.803Z" fill="#92E6A0"/>
<path fill-rule="evenodd" clip-rule="evenodd" d="M477.599 510.617H475.27C472.067 510.617 469.446 508.003 469.446 504.806V458.327C469.446 455.131 472.067 452.517 475.27 452.517H477.599C480.801 452.517 483.422 455.131 483.422 458.327V504.806C483.422 508.003 480.801 510.617 477.599 510.617Z" fill="#828195"/>
<path fill-rule="evenodd" clip-rule="evenodd" d="M546.804 512.352C546.804 516.203 543.675 519.324 539.816 519.324H414.038C410.178 519.324 407.05 516.203 407.05 512.352C407.05 508.502 410.178 505.38 414.038 505.38H539.816C543.675 505.38 546.804 508.502 546.804 512.352Z" fill="#828195"/>
<path fill-rule="evenodd" clip-rule="evenodd" d="M456.564 524.131C454.643 524.131 453.072 522.562 453.072 520.645V504.06C453.072 502.144 454.643 500.576 456.564 500.576H496.305C498.226 500.576 499.799 502.144 499.799 504.06V520.645C499.799 522.562 498.226 524.131 496.305 524.131H456.564Z" fill="#C1C0D4"/>
<path d="M458.874 504.01V520.696" stroke="#828195" stroke-width="6" stroke-linecap="round" stroke-linejoin="round"/>
<path d="M493.414 504.01V520.696" stroke="#828195" stroke-width="6" stroke-linecap="round" stroke-linejoin="round"/>
<path fill-rule="evenodd" clip-rule="evenodd" d="M411.41 479.43H542.441V326.716H411.41V479.43Z" fill="#828195"/>
<path fill-rule="evenodd" clip-rule="evenodd" d="M410.822 480.746C407.542 480.746 404.859 478.069 404.859 474.797V439.63C404.859 436.359 407.542 433.682 410.822 433.682H543.031C546.31 433.682 548.995 436.359 548.995 439.63V474.797C548.995 478.069 546.31 480.746 543.031 480.746H410.822Z" fill="#C1C0D4"/>
<path fill-rule="evenodd" clip-rule="evenodd" d="M410.822 370.869C407.542 370.869 404.859 368.192 404.859 364.919V329.754C404.859 326.482 407.542 323.804 410.822 323.804H543.031C546.31 323.804 548.995 326.482 548.995 329.754V364.919C548.995 368.192 546.31 370.869 543.031 370.869H410.822Z" fill="#C1C0D4"/>
<path fill-rule="evenodd" clip-rule="evenodd" d="M421.566 351.799C419.096 351.799 417.095 349.8 417.095 347.336C417.095 344.873 419.096 342.875 421.566 342.875C424.036 342.875 426.038 344.873 426.038 347.336C426.038 349.8 424.036 351.799 421.566 351.799Z" fill="white"/>
<path fill-rule="evenodd" clip-rule="evenodd" d="M430.877 347.336C430.877 344.873 432.879 342.875 435.35 342.875C437.819 342.875 439.822 344.873 439.822 347.336C439.822 349.8 437.819 351.799 435.35 351.799C432.879 351.799 430.877 349.8 430.877 347.336Z" fill="white"/>
<path fill-rule="evenodd" clip-rule="evenodd" d="M449.134 351.799C446.663 351.799 444.661 349.8 444.661 347.336C444.661 344.873 446.663 342.875 449.134 342.875C451.603 342.875 453.605 344.873 453.605 347.336C453.605 349.8 451.603 351.799 449.134 351.799Z" fill="white"/>
<path fill-rule="evenodd" clip-rule="evenodd" d="M496.596 351.799C495.915 351.799 495.363 351.248 495.363 350.568V344.106C495.363 343.426 495.915 342.875 496.596 342.875H538.849C539.531 342.875 540.083 343.426 540.083 344.106V350.568C540.083 351.248 539.531 351.799 538.849 351.799H496.596Z" fill="#828195"/>
<path fill-rule="evenodd" clip-rule="evenodd" d="M410.822 425.808C407.542 425.808 404.859 423.131 404.859 419.858V384.693C404.859 381.421 407.542 378.743 410.822 378.743H543.031C546.31 378.743 548.995 381.421 548.995 384.693V419.858C548.995 423.131 546.31 425.808 543.031 425.808H410.822Z" fill="#C1C0D4"/>
<path fill-rule="evenodd" clip-rule="evenodd" d="M421.566 408.332C419.096 408.332 417.095 406.334 417.095 403.869C417.095 401.406 419.096 399.408 421.566 399.408C424.036 399.408 426.038 401.406 426.038 403.869C426.038 406.334 424.036 408.332 421.566 408.332Z" fill="white"/>
<path fill-rule="evenodd" clip-rule="evenodd" d="M435.35 408.332C432.879 408.332 430.877 406.334 430.877 403.869C430.877 401.406 432.879 399.408 435.35 399.408C437.819 399.408 439.822 401.406 439.822 403.869C439.822 406.334 437.819 408.332 435.35 408.332Z" fill="#828195"/>
<path fill-rule="evenodd" clip-rule="evenodd" d="M449.134 408.332C446.663 408.332 444.661 406.334 444.661 403.869C444.661 401.406 446.663 399.408 449.134 399.408C451.603 399.408 453.605 401.406 453.605 403.869C453.605 406.334 451.603 408.332 449.134 408.332Z" fill="#828195"/>
<path fill-rule="evenodd" clip-rule="evenodd" d="M538.592 408.332H496.854C496.03 408.332 495.363 407.666 495.363 406.844V400.894C495.363 400.074 496.03 399.408 496.854 399.408H538.592C539.416 399.408 540.083 400.074 540.083 400.894V406.844C540.083 407.666 539.416 408.332 538.592 408.332Z" fill="white"/>
<path fill-rule="evenodd" clip-rule="evenodd" d="M417.095 457.543C417.095 455.079 419.096 453.082 421.566 453.082C424.036 453.082 426.038 455.079 426.038 457.543C426.038 460.007 424.036 462.005 421.566 462.005C419.096 462.005 417.095 460.007 417.095 457.543Z" fill="white"/>
<path fill-rule="evenodd" clip-rule="evenodd" d="M435.35 462.005C432.879 462.005 430.877 460.007 430.877 457.543C430.877 455.079 432.879 453.082 435.35 453.082C437.819 453.082 439.822 455.079 439.822 457.543C439.822 460.007 437.819 462.005 435.35 462.005Z" fill="white"/>
<path fill-rule="evenodd" clip-rule="evenodd" d="M449.134 462.005C446.663 462.005 444.661 460.007 444.661 457.543C444.661 455.079 446.663 453.082 449.134 453.082C451.603 453.082 453.605 455.079 453.605 457.543C453.605 460.007 451.603 462.005 449.134 462.005Z" fill="white"/>
<path fill-rule="evenodd" clip-rule="evenodd" d="M538.592 462.005H496.854C496.03 462.005 495.363 461.339 495.363 460.518V454.568C495.363 453.747 496.03 453.082 496.854 453.082H538.592C539.416 453.082 540.083 453.747 540.083 454.568V460.518C540.083 461.339 539.416 462.005 538.592 462.005Z" fill="#828195"/>
<path fill-rule="evenodd" clip-rule="evenodd" d="M191.397 652.399C191.397 652.265 191.393 652.133 191.393 652C191.393 579.651 249.776 521 321.796 521C375.194 521 421.088 553.248 441.254 599.41C446.369 598.526 451.626 598.059 456.992 598.059C507.829 598.059 549.041 639.46 549.041 690.53C549.041 741.599 507.829 783 456.992 783H184.201C148.191 783 119 753.674 119 717.499C119 681.325 148.191 652 184.201 652C186.633 652 189.034 652.138 191.397 652.399Z" fill="url(#paint2_linear)"/>
</g>
<defs>
<linearGradient id="paint0_linear" x1="136.301" y1="312.798" x2="126.527" y2="241.771" gradientUnits="userSpaceOnUse">
<stop stop-color="#F2F4F9" stop-opacity="0"/>
<stop offset="1" stop-color="white"/>
</linearGradient>
<linearGradient id="paint1_linear" x1="769.371" y1="403.962" x2="769.371" y2="230.979" gradientUnits="userSpaceOnUse">
<stop stop-color="#F2F4F9" stop-opacity="0"/>
<stop offset="1" stop-color="white"/>
</linearGradient>
<linearGradient id="paint2_linear" x1="404.5" y1="783" x2="314.5" y2="560" gradientUnits="userSpaceOnUse">
<stop stop-color="#F2F4F9" stop-opacity="0"/>
<stop offset="0.703125" stop-color="white"/>
</linearGradient>
<clipPath id="clip0">
<rect width="890.767" height="783" fill="white" transform="translate(0.583984)"/>
</clipPath>
</defs>
</svg>
