<svg width="160" height="64" viewBox="0 0 160 64" fill="none" xmlns="http://www.w3.org/2000/svg">
<g clip-path="url(#clip0)">
<rect x="65.0002" y="9.74603" width="6.00001" height="20" fill="#CCCDD3"/>
<path fill-rule="evenodd" clip-rule="evenodd" d="M80.9999 9.74603H74.9999V19.746V29.7461H80.9999V19.7278C81.0098 17.5271 82.7968 15.746 84.9999 15.746C87.2091 15.746 88.9999 17.5369 88.9999 19.746L88.9999 19.7675V28.914L89.0002 28.9139V29.7461H95.0002V18.9461H94.9684C94.5609 13.7972 90.2535 9.74603 85 9.74603C83.5777 9.74603 82.2249 10.0429 80.9999 10.5781V9.74603Z" fill="#CCCDD3"/>
<path fill-rule="evenodd" clip-rule="evenodd" d="M27 29.7461C32.5229 29.7461 37 25.2689 37 19.746C37 14.2232 32.5229 9.74603 27 9.74603C21.4772 9.74603 17 14.2232 17 19.746C17 19.746 17 19.7461 17 19.7461V39.7461H23V28.914C24.2249 29.4492 25.5778 29.7461 27 29.7461Z" fill="#CCCDD3"/>
<path fill-rule="evenodd" clip-rule="evenodd" d="M97.0003 -0.253998H103V9.74601H115V15.746H110.999V19.746H116.999V19.647L116.999 19.7139C116.999 25.2368 112.522 29.714 106.999 29.714C101.476 29.714 96.9993 25.2368 96.9993 19.7139C96.9993 19.6656 96.9996 19.6173 97.0003 19.5691V15.746H95V9.74601H97.0003V-0.253998ZM103 15.746V19.746H102.999C103.016 21.9404 104.8 23.7139 106.999 23.7139C109.208 23.7139 110.999 21.9231 110.999 19.7139H110.999V15.746H103Z" fill="#CCCDD3"/>
<circle cx="51.0001" cy="19.746" r="10" fill="#CCCDD3"/>
<path fill-rule="evenodd" clip-rule="evenodd" d="M98.9993 -0.253998H104.999V9.74601H117V15.746H113V19.746H118.999C118.982 25.2541 114.511 29.714 108.999 29.714C103.476 29.714 98.9993 25.2368 98.9993 19.7139L98.9993 19.6798V15.746H96.9995V9.74601H98.9993V-0.253998ZM104.999 15.746V19.7441C105.016 21.9394 106.8 23.7139 108.999 23.7139C111.208 23.7139 112.999 21.9231 112.999 19.7139C112.999 19.6952 112.999 19.6764 112.999 19.6577V15.746H104.999Z" fill="#FC9A8D"/>
<circle cx="132.999" cy="19.746" r="10" fill="#FC9A8D"/>
<circle cx="75.0002" cy="43.7461" r="10" fill="#828195"/>
<rect x="89.0003" y="33.7461" width="6.00001" height="20" fill="#828195"/>
<path fill-rule="evenodd" clip-rule="evenodd" d="M123 33.7461H129V43.7461H141V49.7461H137V53.7461H143C142.982 59.2542 138.512 63.714 133 63.714C127.488 63.714 123.017 59.2542 123 53.7461H123V49.7461H121V43.7461H123V33.7461ZM129 49.7461V53.714H129C129 55.9231 130.791 57.714 133 57.714C135.209 57.714 137 55.9231 137 53.714L137 53.6835L136.999 53.66V49.7461H129Z" fill="#828195"/>
<path fill-rule="evenodd" clip-rule="evenodd" d="M105 33.7461H99.0001V43.7461V53.7461H105V43.7259C105.011 41.5261 106.798 39.7461 109 39.7461C111.209 39.7461 113 41.5369 113 43.7461C113 43.7648 113 43.7834 113 43.802V52.9142L113 52.9139V53.7461H119V42.9461H118.969C118.561 37.7973 114.254 33.7461 109 33.7461C107.578 33.7461 106.225 34.043 105 34.5782V33.7461Z" fill="#828195"/>
<path fill-rule="evenodd" clip-rule="evenodd" d="M51.0006 53.7461C56.5235 53.7461 61.0006 49.269 61.0006 43.7461C61.0006 38.2233 56.5235 33.7461 51.0006 33.7461C45.4778 33.7461 41.0006 38.2232 41.0006 43.7461H41.0001V63.7461H47.0001V52.9138C48.2251 53.4492 49.5782 53.7461 51.0006 53.7461Z" fill="#828195"/>
</g>
<defs>
<clipPath id="clip0">
<rect width="160" height="64" fill="white"/>
</clipPath>
</defs>
</svg>
