<svg width="25" height="24" viewBox="0 0 25 24" fill="none" xmlns="http://www.w3.org/2000/svg">
<path fill-rule="evenodd" clip-rule="evenodd" d="M24.2475 2.83778C23.3644 3.32043 22.4156 3.64528 21.42 3.79293C22.4363 3.04265 23.217 1.85494 23.5845 0.440202C22.6331 1.13465 21.5794 1.63899 20.4578 1.91077C19.56 0.73367 18.28 0 16.864 0C14.1452 0 11.9402 2.71319 11.9402 6.05854C11.9402 6.53381 11.9833 6.99616 12.0677 7.4396C7.97496 7.18581 4.34646 4.77255 1.91834 1.10881C1.49459 2.00398 1.25177 3.04404 1.25177 4.15423C1.25177 6.25603 2.12102 8.11028 3.44177 9.19764C2.63552 9.16534 1.87577 8.89309 1.21202 8.43859V8.51472C1.21202 11.4517 2.91077 13.8996 5.16077 14.4568C4.74827 14.5952 4.31327 14.669 3.8659 14.669C3.54865 14.669 3.23965 14.6321 2.93965 14.5606C3.5659 16.9683 5.38465 18.7199 7.53902 18.7688C5.85377 20.393 3.73052 21.362 1.42277 21.362C1.02527 21.362 0.634148 21.3343 0.249023 21.2776C2.42777 22.9969 5.0164 24 7.79684 24C16.8531 24 21.8059 14.7668 21.8059 6.76107C21.8059 6.49805 21.801 6.23735 21.7916 5.97664C22.7539 5.123 23.589 4.05479 24.249 2.83893" fill="#8DB2FC"/>
</svg>
