<svg width="730" height="512" viewBox="0 0 730 512" fill="none" xmlns="http://www.w3.org/2000/svg">
<g clip-path="url(#clip0)">
<path d="M298.427 24.8771C298.427 38.6163 285.142 49.7542 268.754 49.7542C252.366 49.7542 239.081 38.6163 239.081 24.8771C239.081 11.1378 252.366 0 268.754 0C285.142 0 298.427 11.1378 298.427 24.8771Z" fill="#E3E4EA"/>
<path d="M268.754 44.2933C268.754 57.3624 255.049 67.9569 238.142 67.9569C221.235 67.9569 207.53 57.3624 207.53 44.2933C207.53 31.2243 221.235 20.6298 238.142 20.6298C255.049 20.6298 268.754 31.2243 268.754 44.2933Z" fill="#E3E4EA"/>
<path d="M290.164 49.7542C290.164 57.7966 280.578 64.3163 268.754 64.3163C256.93 64.3163 247.344 57.7966 247.344 49.7542C247.344 41.7117 256.93 35.192 268.754 35.192C280.578 35.192 290.164 41.7117 290.164 49.7542Z" fill="#E3E4EA"/>
<path d="M330.28 38.9055C326.741 37.1983 326.012 31.8939 328.652 27.0577C331.292 22.2216 336.301 19.685 339.84 21.3922C343.379 23.0994 344.108 28.4038 341.468 33.24C338.828 38.0762 333.819 40.6127 330.28 38.9055Z" fill="#E3E4EA"/>
<path d="M330.059 27.7363C326.692 26.1124 326.171 20.7514 328.894 15.7621C331.618 10.7729 336.554 8.04483 339.921 9.66874C343.287 11.2927 343.809 16.6537 341.085 21.6429C338.362 26.6321 333.425 29.3602 330.059 27.7363Z" fill="#E3E4EA"/>
<path d="M325.203 33.3758C323.132 32.3765 322.996 28.7377 324.901 25.2483C326.806 21.7589 330.029 19.7403 332.101 20.7396C334.172 21.739 334.308 25.3778 332.403 28.8672C330.499 32.3566 327.275 34.3751 325.203 33.3758Z" fill="#E3E4EA"/>
<path d="M181.409 111.572C177.87 109.865 177.141 104.561 179.78 99.7245C182.42 94.8883 187.429 92.3518 190.968 94.059C194.507 95.7662 195.236 101.071 192.596 105.907C189.957 110.743 184.948 113.279 181.409 111.572Z" fill="#E3E4EA"/>
<path d="M181.187 100.403C177.821 98.7791 177.299 93.4181 180.023 88.4289C182.746 83.4397 187.683 80.7116 191.049 82.3355C194.416 83.9594 194.937 89.3204 192.214 94.3096C189.49 99.2988 184.554 102.027 181.187 100.403Z" fill="#E3E4EA"/>
<path d="M176.332 106.043C174.26 105.043 174.125 101.404 176.029 97.915C177.934 94.4256 181.157 92.407 183.229 93.4064C185.301 94.4057 185.436 98.0445 183.531 101.534C181.627 105.023 178.403 107.042 176.332 106.043Z" fill="#E3E4EA"/>
<path d="M667.857 185.791C657.643 191.779 644.926 189.944 639.453 181.693C633.98 173.442 637.824 161.9 648.038 155.912C658.252 149.924 670.969 151.759 676.442 160.01C681.915 168.261 678.071 179.803 667.857 185.791Z" fill="#E3E4EA"/>
<path d="M643.513 179.313C633.797 185.009 621.344 182.725 615.698 174.213C610.051 165.702 613.351 154.184 623.066 148.489C632.782 142.793 645.236 145.076 650.882 153.588C656.528 162.1 653.229 173.618 643.513 179.313Z" fill="#E3E4EA"/>
<path d="M646.603 192.472C640.624 195.977 632.576 193.992 628.627 188.039C624.679 182.086 626.324 174.419 632.303 170.914C638.282 167.409 646.33 169.394 650.279 175.347C654.228 181.3 652.582 188.967 646.603 192.472Z" fill="#E3E4EA"/>
<ellipse cx="180.332" cy="141.297" rx="5.72582" ry="6.7284" fill="#E3E4EA"/>
<path d="M663.655 241.556C659.025 244.27 652.552 242.368 649.196 237.309C645.84 232.25 646.872 225.949 651.502 223.235C656.131 220.521 662.604 222.422 665.96 227.482C669.316 232.541 668.284 238.842 663.655 241.556Z" fill="#C1C0D4"/>
<path d="M651.036 236.231C646.632 238.812 640.256 236.673 636.794 231.454C633.331 226.235 634.095 219.911 638.498 217.329C642.902 214.748 649.278 216.886 652.74 222.106C656.203 227.325 655.439 233.649 651.036 236.231Z" fill="#C1C0D4"/>
<path d="M653.58 243.919C650.87 245.507 646.71 243.836 644.289 240.186C641.868 236.535 642.102 232.288 644.811 230.7C647.521 229.111 651.681 230.782 654.102 234.433C656.524 238.083 656.29 242.33 653.58 243.919Z" fill="#C1C0D4"/>
<rect x="0.999969" y="293.458" width="728" height="220" rx="36.0116" fill="white"/>
<path d="M346.258 297.062H394.928L418.547 321.284H346.258V297.062Z" fill="#C1C0D4"/>
<path d="M404.948 231.797L388.998 261.584L430.202 289.124L430.762 261.857L404.948 231.797Z" fill="#828195"/>
<path d="M335.331 231.797L350.713 262.819L308.825 288.78L308.825 261.065L335.331 231.797Z" fill="#828195"/>
<path d="M344.469 268.466L396.717 269.812L394.928 295.044H346.974L344.469 268.466Z" fill="#828195"/>
<path d="M340.532 302.445H402.085L394.928 288.988H346.616L340.532 302.445Z" fill="#C1C0D4"/>
<path d="M354.54 128.917C361.737 115.034 381.596 115.034 388.793 128.917L392.423 135.917L403.159 162.494C406.243 174.605 397.092 186.38 384.594 186.38H357.015C345.382 186.38 336.693 175.68 339.081 164.294C339.332 163.097 339.703 161.928 340.187 160.805L350.91 135.917L354.54 128.917Z" fill="#E3E4EA"/>
<ellipse cx="371.666" cy="250.3" rx="33.2813" ry="34.6513" fill="#E3E4EA"/>
<path d="M338.743 163.167H403.516L407.095 174.941L409.242 187.725V196.472L407.095 230.451L404.59 254.337L400.295 261.065H340.89L338.743 254L335.88 232.133L334.091 196.472V187.725L335.88 174.941L338.743 163.167Z" fill="#E3E4EA"/>
<path d="M350.92 137.42C355.406 114.704 387.8 114.435 392.664 137.073L393.138 139.281L399.937 157.784L401.587 164.848C402.628 169.308 402.983 173.901 402.639 178.468L399.937 214.303L397.583 233.603C395.997 246.603 384.959 256.377 371.862 256.377C358.598 256.377 347.476 246.361 346.091 233.17L344.111 214.303L341.62 177.13C341.373 173.442 341.581 169.738 342.239 166.101L343.333 160.062C343.85 157.205 344.643 154.404 345.7 151.699L349.862 141.048C350.321 139.872 350.675 138.658 350.92 137.42Z" fill="white"/>
<path d="M371.667 95.8827L391.349 133.562H351.984L371.667 95.8827Z" fill="#828195"/>
<path d="M352.223 133.33C352.222 134.161 354.257 134.959 357.881 135.548C361.505 136.138 366.42 136.471 371.546 136.474C376.671 136.477 381.587 136.15 385.211 135.565C388.836 134.98 390.873 134.185 390.873 133.354L371.548 133.342L352.223 133.33Z" fill="#828195"/>
<path d="M360.803 160.634C360.849 162.572 361.534 164.453 362.772 166.039C364.01 167.625 365.745 168.845 367.758 169.545C369.771 170.245 371.972 170.394 374.081 169.972C376.191 169.55 378.115 168.576 379.61 167.174C381.105 165.772 382.104 164.005 382.481 162.096C382.858 160.187 382.595 158.221 381.726 156.448C380.858 154.675 379.422 153.174 377.601 152.135C375.779 151.096 373.654 150.565 371.494 150.61L371.725 160.407L360.803 160.634Z" fill="#C1C0D4"/>
<path d="M361.862 184.241C360.647 186.192 360.181 188.483 360.534 190.768C360.887 193.052 362.041 195.205 363.82 196.899C365.598 198.594 367.905 199.737 370.39 200.156C372.875 200.575 375.403 200.247 377.589 199.221C379.775 198.195 381.501 196.528 382.504 194.473C383.508 192.417 383.734 190.085 383.148 187.831C382.563 185.576 381.198 183.523 379.261 181.982C377.323 180.44 374.919 179.496 372.414 179.291L371.943 189.791L361.862 184.241Z" fill="#828195"/>
<path d="M363.955 215.42C362.089 217.063 360.923 219.298 360.653 221.745C360.384 224.191 361.028 226.697 362.477 228.836C363.926 230.975 366.089 232.614 368.598 233.475C371.107 234.335 373.807 234.363 376.238 233.555C378.668 232.746 380.679 231.15 381.928 229.04C383.176 226.929 383.585 224.434 383.085 221.979C382.584 219.525 381.206 217.263 379.183 215.579C377.161 213.895 374.621 212.893 371.995 212.744L371.943 223.433L363.955 215.42Z" fill="#828195"/>
<path d="M392.338 280.708C391.691 276.657 386.489 274.034 380.719 274.849C374.949 275.664 370.797 279.608 371.444 283.659C372.092 287.71 377.294 290.333 383.063 289.519C388.833 288.704 392.985 284.759 392.338 280.708Z" fill="#C1C0D4"/>
<path d="M410.653 282.848C409.829 277.692 403.546 274.306 396.619 275.284C389.692 276.262 384.745 281.235 385.569 286.39C386.393 291.546 392.676 294.933 399.603 293.955C406.529 292.976 411.477 288.004 410.653 282.848Z" fill="#C1C0D4"/>
<path d="M340.532 280.524L384.415 274.327L428.298 268.13L384.24 274.352L340.532 280.524Z" fill="#C1C0D4"/>
<path d="M571.863 288.144C571.863 307.056 552.753 322.387 529.18 322.387C505.607 322.387 486.498 307.056 486.498 288.144C486.498 269.231 505.607 253.9 529.18 253.9C552.753 253.9 571.863 269.231 571.863 288.144Z" fill="#C1C0D4"/>
<path d="M643.674 266.567C643.674 290.637 620.732 310.15 592.431 310.15C564.131 310.15 541.188 290.637 541.188 266.567C541.188 242.497 564.131 222.984 592.431 222.984C620.732 222.984 643.674 242.497 643.674 266.567Z" fill="#C1C0D4"/>
<path d="M569.247 322.387C569.247 309.689 562.671 297.512 550.965 288.533C539.259 279.555 523.383 274.511 506.829 274.511C490.274 274.511 474.398 279.555 462.692 288.533C450.986 297.512 444.41 309.689 444.41 322.387L569.247 322.387Z" fill="#C1C0D4"/>
<path d="M431.094 322.387C422.248 322.387 427.616 322.387 419.743 322.387C409.723 322.387 408.827 322.387 400.061 322.387C391.295 322.387 387.893 322.387 381.452 322.387C366.779 322.387 368.211 322.387 364.99 322.387L431.094 322.387Z" fill="#C1C0D4"/>
<path d="M687.664 322.28C687.664 317.696 685.635 313.3 682.023 310.059C678.41 306.818 673.512 304.997 668.403 304.997C663.295 304.997 658.396 306.818 654.784 310.059C651.172 313.3 649.143 317.696 649.143 322.28H687.664Z" fill="#C1C0D4"/>
<path d="M723.569 322.387C723.569 319.198 722.191 316.14 719.739 313.886C717.286 311.631 713.96 310.364 710.491 310.364C707.023 310.364 703.696 311.631 701.244 313.886C698.791 316.14 697.413 319.198 697.413 322.387H723.569Z" fill="#C1C0D4"/>
<path d="M668.403 322.387C668.403 309.689 661.827 297.512 650.121 288.533C638.416 279.555 622.539 274.511 605.985 274.511C589.43 274.511 573.554 279.555 561.848 288.533C550.143 297.512 543.566 309.689 543.566 322.387L668.403 322.387Z" fill="#C1C0D4"/>
<path d="M364.99 322.387L544.28 322.387H723.569L543.566 322.387H364.99Z" fill="#C1C0D4"/>
<path d="M185.563 288.144C185.563 307.056 201.277 322.387 220.663 322.387C240.048 322.387 255.763 307.056 255.763 288.144C255.763 269.231 240.048 253.9 220.663 253.9C201.277 253.9 185.563 269.231 185.563 288.144Z" fill="#C1C0D4"/>
<path d="M126.508 266.567C126.508 290.637 145.375 310.15 168.648 310.15C191.921 310.15 210.788 290.637 210.788 266.567C210.788 242.497 191.921 222.984 168.648 222.984C145.375 222.984 126.508 242.497 126.508 266.567Z" fill="#C1C0D4"/>
<path d="M187.714 322.387C187.714 309.689 193.122 297.512 202.748 288.533C212.374 279.555 225.43 274.511 239.044 274.511C252.657 274.511 265.713 279.555 275.34 288.533C284.966 297.512 290.374 309.689 290.374 322.387L187.714 322.387Z" fill="#C1C0D4"/>
<path d="M301.324 322.387C301.324 315.213 304.188 308.332 309.285 303.259C314.383 298.186 321.296 295.336 328.505 295.336C335.714 295.336 342.627 298.186 347.724 303.259C352.822 308.332 355.685 315.213 355.685 322.387L301.324 322.387Z" fill="#C1C0D4"/>
<path d="M90.3329 322.28C90.3329 317.696 92.0016 313.3 94.972 310.059C97.9424 306.818 101.971 304.997 106.172 304.997C110.373 304.997 114.401 306.818 117.372 310.059C120.342 313.3 122.011 317.696 122.011 322.28H90.3329Z" fill="#C1C0D4"/>
<path d="M60.8058 322.387C60.8058 319.198 61.9389 316.14 63.9558 313.886C65.9727 311.631 68.7083 310.364 71.5607 310.364C74.413 310.364 77.1486 311.631 79.1655 313.886C81.1825 316.14 82.3156 319.198 82.3156 322.387H60.8058Z" fill="#C1C0D4"/>
<path d="M106.172 322.387C106.172 309.689 111.58 297.512 121.206 288.533C130.832 279.555 143.888 274.511 157.502 274.511C171.116 274.511 184.172 279.555 193.798 288.533C203.424 297.512 208.832 309.689 208.832 322.387L106.172 322.387Z" fill="#C1C0D4"/>
<path d="M355.685 322.387L208.246 322.387H60.8058L208.832 322.387H355.685Z" fill="#C1C0D4"/>
<path d="M264.981 253.199C264.981 260.993 268.07 267.312 271.882 267.312C275.693 267.312 278.782 260.993 278.782 253.199C278.782 245.404 275.693 239.085 271.882 239.085C268.07 239.085 264.981 245.404 264.981 253.199Z" fill="#C1C0D4"/>
<path d="M253.371 244.306C253.371 254.226 257.08 262.269 261.655 262.269C266.231 262.269 269.94 254.226 269.94 244.306C269.94 234.385 266.231 226.342 261.655 226.342C257.08 226.342 253.371 234.385 253.371 244.306Z" fill="#C1C0D4"/>
<path d="M298.427 267.312L269.44 267.312H240.453L269.556 267.312H298.427Z" fill="#C1C0D4"/>
<path d="M121.23 285.486C121.23 307.721 141.102 325.745 165.616 325.745C190.13 325.745 210.002 307.721 210.002 285.486C210.002 263.251 190.13 245.227 165.616 245.227C141.102 245.227 121.23 263.251 121.23 285.486Z" fill="white"/>
<path d="M46.5522 260.119C46.5522 288.417 70.4101 311.358 99.8404 311.358C129.271 311.358 153.129 288.417 153.129 260.119C153.129 231.82 129.271 208.88 99.8404 208.88C70.4101 208.88 46.5522 231.82 46.5522 260.119Z" fill="white"/>
<path d="M123.95 325.745C123.95 310.817 130.789 296.5 142.962 285.944C155.135 275.388 171.645 269.458 188.86 269.458C206.075 269.458 222.586 275.388 234.759 285.944C246.932 296.5 253.77 310.817 253.77 325.745L123.95 325.745Z" fill="white"/>
<path d="M267.618 325.745C267.618 317.31 271.239 309.221 277.685 303.257C284.131 297.292 292.874 293.942 301.989 293.942C311.105 293.942 319.848 297.292 326.294 303.257C332.74 309.221 336.361 317.31 336.361 325.745L267.618 325.745Z" fill="white"/>
<path d="M0.805878 325.619C0.805878 320.23 2.91614 315.062 6.67239 311.251C10.4286 307.441 15.5232 305.3 20.8354 305.3C26.1475 305.3 31.242 307.441 34.9983 311.251C38.7545 315.062 40.8648 320.23 40.8648 325.619H0.805878Z" fill="white"/>
<path d="M20.8354 325.745C20.8354 310.817 27.6741 296.5 39.8471 285.944C52.0202 275.388 68.5303 269.458 85.7456 269.458C102.961 269.458 119.471 275.388 131.644 285.944C143.817 296.5 150.656 310.817 150.656 325.745L20.8354 325.745Z" fill="white"/>
<path d="M541.93 303.35C542.024 316.84 528.75 327.857 512.282 327.958C495.815 328.059 482.389 317.205 482.295 303.715C482.201 290.225 495.475 279.207 511.942 279.106C528.41 279.006 541.836 289.86 541.93 303.35Z" fill="white"/>
<path d="M591.989 287.651C592.108 304.821 576.178 318.837 556.408 318.959C536.637 319.08 520.513 305.26 520.394 288.09C520.274 270.921 536.205 256.904 555.975 256.783C575.745 256.662 591.869 270.482 591.989 287.651Z" fill="white"/>
<path d="M540.273 327.787C540.209 318.73 535.555 310.071 527.333 303.717C519.111 297.363 507.995 293.833 496.43 293.904C484.865 293.975 473.799 297.641 465.666 304.095C457.533 310.55 453 319.264 453.063 328.321L540.273 327.787Z" fill="white"/>
<path d="M443.761 328.378C443.725 323.261 441.258 318.368 436.903 314.776C432.547 311.184 426.66 309.187 420.536 309.224C414.413 309.262 408.554 311.331 404.249 314.976C399.944 318.621 397.545 323.544 397.581 328.661L443.761 328.378Z" fill="white"/>
<path d="M622.997 327.203C622.974 323.934 621.534 320.807 618.995 318.51C616.455 316.214 613.024 314.936 609.456 314.958C605.887 314.98 602.474 316.299 599.966 318.627C597.459 320.954 596.063 324.099 596.086 327.368L622.997 327.203Z" fill="white"/>
<path d="M648.08 327.126C648.064 324.852 647.087 322.676 645.362 321.078C643.637 319.481 641.307 318.591 638.884 318.606C636.461 318.621 634.144 319.539 632.441 321.158C630.739 322.776 629.792 324.964 629.808 327.238L648.08 327.126Z" fill="white"/>
<path d="M609.542 327.362C609.479 318.305 604.824 309.647 596.602 303.293C588.38 296.938 577.264 293.408 565.699 293.479C554.135 293.55 543.069 297.216 534.936 303.67C526.803 310.125 522.269 318.84 522.332 327.897L609.542 327.362Z" fill="white"/>
<path d="M397.581 328.661L522.831 327.894L648.08 327.126L522.332 327.897L397.581 328.661Z" fill="white"/>
<path d="M670.853 312.856C670.853 318.861 665.475 323.73 658.841 323.73C652.207 323.73 646.829 318.861 646.829 312.856C646.829 306.85 652.207 301.981 658.841 301.981C665.475 301.981 670.853 306.85 670.853 312.856Z" fill="white"/>
<path d="M691.064 306.004C691.064 313.647 684.607 319.844 676.642 319.844C668.677 319.844 662.22 313.647 662.22 306.004C662.22 298.36 668.677 292.163 676.642 292.163C684.607 292.163 691.064 298.36 691.064 306.004Z" fill="white"/>
<path d="M670.117 323.73C670.117 319.698 668.266 315.831 664.972 312.979C661.678 310.128 657.209 308.526 652.55 308.526C647.891 308.526 643.423 310.128 640.129 312.979C636.834 315.831 634.983 319.698 634.983 323.73L670.117 323.73Z" fill="white"/>
<path d="M631.236 323.73C631.236 321.452 630.256 319.267 628.511 317.656C626.767 316.045 624.401 315.14 621.934 315.14C619.467 315.14 617.101 316.045 615.356 317.656C613.612 319.267 612.632 321.452 612.632 323.73L631.236 323.73Z" fill="white"/>
<path d="M703.444 323.696C703.444 322.24 702.873 320.844 701.856 319.815C700.84 318.786 699.461 318.208 698.023 318.208C696.586 318.208 695.207 318.786 694.19 319.815C693.174 320.844 692.603 322.24 692.603 323.696H703.444Z" fill="white"/>
<path d="M713.549 323.73C713.549 322.718 713.161 321.746 712.471 321.03C711.781 320.314 710.845 319.912 709.869 319.912C708.892 319.912 707.956 320.314 707.266 321.03C706.576 321.746 706.188 322.718 706.188 323.73H713.549Z" fill="white"/>
<path d="M698.023 323.73C698.023 319.698 696.173 315.831 692.878 312.979C689.584 310.128 685.116 308.526 680.457 308.526C675.798 308.526 671.329 310.128 668.035 312.979C664.74 315.831 662.89 319.698 662.89 323.73L698.023 323.73Z" fill="white"/>
<path d="M612.632 323.73L663.09 323.73H713.549L662.89 323.73H612.632Z" fill="white"/>
<path d="M379.537 317.925C379.537 320.225 375.799 322.09 371.188 322.09C366.577 322.09 362.839 320.225 362.839 317.925C362.839 315.625 366.577 313.76 371.188 313.76C375.799 313.76 379.537 315.625 379.537 317.925Z" fill="white"/>
<path d="M393.584 315.301C393.584 318.228 389.096 320.601 383.56 320.601C378.024 320.601 373.537 318.228 373.537 315.301C373.537 312.373 378.024 310 383.56 310C389.096 310 393.584 312.373 393.584 315.301Z" fill="white"/>
<path d="M379.025 322.09C379.025 320.545 377.739 319.064 375.449 317.972C373.159 316.88 370.054 316.267 366.815 316.267C363.577 316.267 360.472 316.88 358.182 317.972C355.892 319.064 354.606 320.545 354.606 322.09L379.025 322.09Z" fill="white"/>
<path d="M352.001 322.09C352.001 321.217 351.32 320.38 350.107 319.763C348.895 319.146 347.251 318.799 345.536 318.799C343.821 318.799 342.177 319.146 340.964 319.763C339.752 320.38 339.071 321.217 339.071 322.09L352.001 322.09Z" fill="white"/>
<path d="M402.188 322.076C402.188 321.519 401.791 320.984 401.085 320.59C400.378 320.196 399.42 319.974 398.421 319.974C397.422 319.974 396.463 320.196 395.757 320.59C395.05 320.984 394.653 321.519 394.653 322.076H402.188Z" fill="white"/>
<path d="M409.212 322.09C409.212 321.702 408.942 321.33 408.463 321.056C407.983 320.781 407.332 320.627 406.654 320.627C405.975 320.627 405.324 320.781 404.845 321.056C404.365 321.33 404.095 321.702 404.095 322.09H409.212Z" fill="white"/>
<path d="M398.421 322.09C398.421 320.545 397.135 319.064 394.845 317.972C392.555 316.88 389.449 316.267 386.211 316.267C382.973 316.267 379.868 316.88 377.578 317.972C375.288 319.064 374.002 320.545 374.002 322.09L398.421 322.09Z" fill="white"/>
<path d="M339.071 322.09L374.141 322.09H409.212L374.002 322.09H339.071Z" fill="white"/>
<path d="M344.466 320.044C344.466 322.089 340.728 323.746 336.117 323.746C331.506 323.746 327.768 322.089 327.768 320.044C327.768 318 331.506 316.342 336.117 316.342C340.728 316.342 344.466 318 344.466 320.044Z" fill="white"/>
<path d="M358.513 317.712C358.513 320.314 354.025 322.423 348.489 322.423C342.954 322.423 338.466 320.314 338.466 317.712C338.466 315.109 342.954 313 348.489 313C354.025 313 358.513 315.109 358.513 317.712Z" fill="white"/>
<path d="M343.954 323.746C343.954 322.374 342.668 321.057 340.378 320.086C338.089 319.116 334.983 318.57 331.745 318.57C328.507 318.57 325.401 319.116 323.111 320.086C320.822 321.057 319.535 322.374 319.535 323.746L343.954 323.746Z" fill="white"/>
<path d="M316.931 323.746C316.931 322.971 316.249 322.227 315.037 321.678C313.824 321.13 312.18 320.822 310.465 320.822C308.751 320.822 307.106 321.13 305.894 321.678C304.681 322.227 304 322.971 304 323.746L316.931 323.746Z" fill="white"/>
<path d="M367.118 323.735C367.118 323.239 366.721 322.764 366.014 322.413C365.308 322.063 364.35 321.866 363.35 321.866C362.351 321.866 361.393 322.063 360.686 322.413C359.98 322.764 359.583 323.239 359.583 323.735H367.118Z" fill="white"/>
<path d="M374.141 323.746C374.141 323.401 373.872 323.071 373.392 322.827C372.912 322.583 372.262 322.446 371.583 322.446C370.905 322.446 370.254 322.583 369.774 322.827C369.294 323.071 369.025 323.401 369.025 323.746H374.141Z" fill="white"/>
<path d="M363.35 323.746C363.35 322.374 362.064 321.057 359.774 320.086C357.484 319.116 354.379 318.57 351.141 318.57C347.903 318.57 344.797 319.116 342.507 320.086C340.217 321.057 338.931 322.374 338.931 323.746L363.35 323.746Z" fill="white"/>
<path d="M304 323.746L339.071 323.746H374.141L338.931 323.746H304Z" fill="white"/>
<path d="M266.467 316.4C266.467 323.045 261.089 328.432 254.455 328.432C247.821 328.432 242.443 323.045 242.443 316.4C242.443 309.755 247.821 304.369 254.455 304.369C261.089 304.369 266.467 309.755 266.467 316.4Z" fill="white"/>
<path d="M286.678 308.819C286.678 317.276 280.221 324.132 272.256 324.132C264.291 324.132 257.834 317.276 257.834 308.819C257.834 300.362 264.291 293.506 272.256 293.506C280.221 293.506 286.678 300.362 286.678 308.819Z" fill="white"/>
<path d="M265.731 328.432C265.731 323.97 263.88 319.692 260.586 316.537C257.292 313.383 252.823 311.61 248.164 311.61C243.505 311.61 239.037 313.383 235.743 316.537C232.448 319.692 230.597 323.97 230.597 328.432L265.731 328.432Z" fill="white"/>
<path d="M226.85 328.432C226.85 325.911 225.87 323.493 224.125 321.711C222.381 319.929 220.015 318.927 217.548 318.927C215.081 318.927 212.715 319.929 210.97 321.711C209.226 323.493 208.246 325.911 208.246 328.432L226.85 328.432Z" fill="white"/>
<path d="M299.058 328.394C299.058 326.784 298.487 325.239 297.47 324.1C296.454 322.961 295.075 322.322 293.637 322.322C292.2 322.322 290.821 322.961 289.804 324.1C288.788 325.239 288.217 326.784 288.217 328.394H299.058Z" fill="white"/>
<path d="M309.163 328.432C309.163 327.311 308.775 326.237 308.085 325.445C307.395 324.653 306.459 324.207 305.483 324.207C304.506 324.207 303.57 324.653 302.88 325.445C302.19 326.237 301.802 327.311 301.802 328.432H309.163Z" fill="white"/>
<path d="M293.637 328.432C293.637 323.97 291.787 319.692 288.492 316.537C285.198 313.383 280.73 311.61 276.071 311.61C271.412 311.61 266.943 313.383 263.649 316.537C260.354 319.692 258.504 323.97 258.504 328.432L293.637 328.432Z" fill="white"/>
<path d="M208.246 328.432L258.704 328.432H309.163L258.504 328.432H208.246Z" fill="white"/>
</g>
<defs>
<clipPath id="clip0">
<rect width="730" height="512" fill="white"/>
</clipPath>
</defs>
</svg>
